<mxfile host="app.diagrams.net" agent="Mozilla/5.0 (Windows NT 10.0; Win64; x64) AppleWebKit/537.36 (KHTML, like Gecko) Chrome/129.0.0.0 Safari/537.36" version="24.7.17">
  <diagram name="Page-1" id="r-Fnvp_YxRu4vtTOQs85">
    <mxGraphModel dx="1332" dy="1637" grid="1" gridSize="10" guides="1" tooltips="1" connect="1" arrows="1" fold="1" page="1" pageScale="1" pageWidth="827" pageHeight="1169" math="0" shadow="0">
      <root>
        <mxCell id="0" />
        <mxCell id="1" parent="0" />
        <mxCell id="TvpjpGgyVsRweBhkjj-o-303" value="" style="edgeStyle=orthogonalEdgeStyle;curved=1;rounded=0;orthogonalLoop=1;jettySize=auto;html=1;exitX=0.956;exitY=0.938;exitDx=0;exitDy=0;exitPerimeter=0;" edge="1" parent="1" source="TvpjpGgyVsRweBhkjj-o-151">
          <mxGeometry relative="1" as="geometry">
            <mxPoint x="957" y="1205" as="sourcePoint" />
            <mxPoint x="910" y="1265" as="targetPoint" />
          </mxGeometry>
        </mxCell>
        <mxCell id="TvpjpGgyVsRweBhkjj-o-304" value="&lt;span style=&quot;background-color: rgb(251, 251, 251);&quot;&gt;No, After +1 cycle&lt;/span&gt;" style="edgeLabel;html=1;align=center;verticalAlign=middle;resizable=0;points=[];rotation=-75;" vertex="1" connectable="0" parent="TvpjpGgyVsRweBhkjj-o-303">
          <mxGeometry x="-0.3646" y="-4" relative="1" as="geometry">
            <mxPoint x="-26" y="44" as="offset" />
          </mxGeometry>
        </mxCell>
        <mxCell id="TvpjpGgyVsRweBhkjj-o-241" style="edgeStyle=orthogonalEdgeStyle;rounded=0;orthogonalLoop=1;jettySize=auto;html=1;entryX=0.469;entryY=1.015;entryDx=0;entryDy=0;entryPerimeter=0;exitX=0.663;exitY=0.044;exitDx=0;exitDy=0;exitPerimeter=0;" edge="1" parent="1" source="TvpjpGgyVsRweBhkjj-o-166" target="TvpjpGgyVsRweBhkjj-o-151">
          <mxGeometry relative="1" as="geometry">
            <mxPoint x="818" y="1131" as="sourcePoint" />
            <mxPoint x="818" y="830" as="targetPoint" />
          </mxGeometry>
        </mxCell>
        <mxCell id="TvpjpGgyVsRweBhkjj-o-256" value="Yes, +1 Cycle" style="edgeLabel;html=1;align=center;verticalAlign=middle;resizable=0;points=[];rotation=90;" vertex="1" connectable="0" parent="TvpjpGgyVsRweBhkjj-o-241">
          <mxGeometry x="0.1335" y="-2" relative="1" as="geometry">
            <mxPoint x="-12" y="-1" as="offset" />
          </mxGeometry>
        </mxCell>
        <mxCell id="TvpjpGgyVsRweBhkjj-o-152" value="" style="curved=1;noEdgeStyle=1;orthogonal=1;" edge="1" parent="1">
          <mxGeometry relative="1" as="geometry">
            <mxPoint x="512" y="803" as="sourcePoint" />
            <mxPoint x="690.9964651129299" y="803" as="targetPoint" />
          </mxGeometry>
        </mxCell>
        <mxCell id="TvpjpGgyVsRweBhkjj-o-250" value="No" style="edgeLabel;html=1;align=center;verticalAlign=middle;resizable=0;points=[];" vertex="1" connectable="0" parent="TvpjpGgyVsRweBhkjj-o-152">
          <mxGeometry x="-0.0264" relative="1" as="geometry">
            <mxPoint y="-12" as="offset" />
          </mxGeometry>
        </mxCell>
        <mxCell id="TvpjpGgyVsRweBhkjj-o-181" value="" style="curved=1;noEdgeStyle=1;orthogonal=1;entryX=0.5;entryY=0;entryDx=0;entryDy=0;" edge="1" parent="1">
          <mxGeometry relative="1" as="geometry">
            <mxPoint x="500" y="-52" as="sourcePoint" />
            <mxPoint x="500" y="-11" as="targetPoint" />
          </mxGeometry>
        </mxCell>
        <mxCell id="TvpjpGgyVsRweBhkjj-o-246" value="Yes" style="edgeLabel;html=1;align=center;verticalAlign=middle;resizable=0;points=[];" vertex="1" connectable="0" parent="TvpjpGgyVsRweBhkjj-o-181">
          <mxGeometry x="0.0786" y="2" relative="1" as="geometry">
            <mxPoint x="13" as="offset" />
          </mxGeometry>
        </mxCell>
        <mxCell id="TvpjpGgyVsRweBhkjj-o-121" value="Maintenance name: We will be performing&#xa;scheduled maintenance on Belden Horizon Web Server / Portal." style="rounded=1;fontSize=10;fontStyle=0;verticalAlign=middle;" vertex="1" parent="1">
          <mxGeometry x="360" y="-10" width="360" height="30" as="geometry" />
        </mxCell>
        <mxCell id="TvpjpGgyVsRweBhkjj-o-122" value="" style="curved=1;noEdgeStyle=1;orthogonal=1;entryX=0.5;entryY=0;entryDx=0;entryDy=0;" edge="1" target="TvpjpGgyVsRweBhkjj-o-179" parent="1">
          <mxGeometry relative="1" as="geometry">
            <mxPoint x="500" y="-160" as="sourcePoint" />
          </mxGeometry>
        </mxCell>
        <mxCell id="TvpjpGgyVsRweBhkjj-o-120" value="Start" style="rounded=1;rectangle;fixDash=0;direction=west;flipH=0;flipV=1;fillColor=#E1D5E7;fontSize=10;labelBackgroundColor=none;textShadow=0;" vertex="1" parent="1">
          <mxGeometry x="448" y="-180" width="110" height="30" as="geometry" />
        </mxCell>
        <mxCell id="TvpjpGgyVsRweBhkjj-o-123" value="Configure the Scheduled Time for maintenance (In Future only)." style="rounded=1;fontSize=10;" vertex="1" parent="1">
          <mxGeometry x="357.31" y="50" width="290" height="27" as="geometry" />
        </mxCell>
        <mxCell id="TvpjpGgyVsRweBhkjj-o-124" value="" style="curved=1;noEdgeStyle=1;orthogonal=1;" edge="1" target="TvpjpGgyVsRweBhkjj-o-123" parent="1">
          <mxGeometry relative="1" as="geometry">
            <mxPoint x="497.4549999999999" y="24.49000000000001" as="sourcePoint" />
          </mxGeometry>
        </mxCell>
        <mxCell id="TvpjpGgyVsRweBhkjj-o-126" value="" style="curved=1;noEdgeStyle=1;orthogonal=1;" edge="1" parent="1">
          <mxGeometry relative="1" as="geometry">
            <mxPoint x="499" y="77" as="sourcePoint" />
            <mxPoint x="499" y="110" as="targetPoint" />
          </mxGeometry>
        </mxCell>
        <mxCell id="TvpjpGgyVsRweBhkjj-o-127" value="Message: During this time,&#xa;users can expect Belden Horizon Web Server / Portal not accessible" style="rounded=1;fontSize=10;" vertex="1" parent="1">
          <mxGeometry x="342.92" y="110" width="309.43" height="30" as="geometry" />
        </mxCell>
        <mxCell id="TvpjpGgyVsRweBhkjj-o-128" value="" style="curved=1;noEdgeStyle=1;orthogonal=1;exitX=0.5;exitY=1;exitDx=0;exitDy=0;" edge="1" source="TvpjpGgyVsRweBhkjj-o-129" target="TvpjpGgyVsRweBhkjj-o-131" parent="1">
          <mxGeometry relative="1" as="geometry" />
        </mxCell>
        <mxCell id="TvpjpGgyVsRweBhkjj-o-130" value="" style="curved=1;noEdgeStyle=1;orthogonal=1;" edge="1" parent="1">
          <mxGeometry relative="1" as="geometry">
            <mxPoint x="497.45500000000015" y="140" as="sourcePoint" />
            <mxPoint x="497.45500000000015" y="170" as="targetPoint" />
          </mxGeometry>
        </mxCell>
        <mxCell id="TvpjpGgyVsRweBhkjj-o-195" value="" style="edgeStyle=orthogonalEdgeStyle;rounded=0;orthogonalLoop=1;jettySize=auto;html=1;" edge="1" parent="1">
          <mxGeometry relative="1" as="geometry">
            <mxPoint x="495" y="285.51" as="sourcePoint" />
            <mxPoint x="495.0666666666666" y="310" as="targetPoint" />
          </mxGeometry>
        </mxCell>
        <mxCell id="TvpjpGgyVsRweBhkjj-o-131" value="Configure the Automation Option:&#xa;Note: Please follow the default settings, until&#xa;intensely require to change." style="rounded=1;fontSize=10;" vertex="1" parent="1">
          <mxGeometry x="377" y="240" width="220" height="45.51" as="geometry" />
        </mxCell>
        <mxCell id="TvpjpGgyVsRweBhkjj-o-134" value="" style="curved=1;noEdgeStyle=1;orthogonal=1;entryX=0.439;entryY=0.041;entryDx=0;entryDy=0;entryPerimeter=0;" edge="1" source="TvpjpGgyVsRweBhkjj-o-160" target="TvpjpGgyVsRweBhkjj-o-172" parent="1">
          <mxGeometry relative="1" as="geometry">
            <mxPoint x="452.345" y="1546.9998947139247" as="targetPoint" />
          </mxGeometry>
        </mxCell>
        <mxCell id="TvpjpGgyVsRweBhkjj-o-135" value="Action: Scheduled now" style="rounded=1;fontSize=10;" vertex="1" parent="1">
          <mxGeometry x="422.6889957736936" y="310.00267833803446" width="130" height="30" as="geometry" />
        </mxCell>
        <mxCell id="TvpjpGgyVsRweBhkjj-o-137" value="Assign Team for Maintenenance changes" style="rounded=1;" vertex="1" parent="1">
          <mxGeometry x="370" y="375" width="226.74" height="25" as="geometry" />
        </mxCell>
        <mxCell id="TvpjpGgyVsRweBhkjj-o-139" value="Update the Maintenance Status to In Progress" style="rounded=1;" vertex="1" parent="1">
          <mxGeometry x="345" y="443" width="256.74" height="30" as="geometry" />
        </mxCell>
        <mxCell id="TvpjpGgyVsRweBhkjj-o-140" value="" style="curved=1;noEdgeStyle=1;orthogonal=1;" edge="1" source="TvpjpGgyVsRweBhkjj-o-137" target="TvpjpGgyVsRweBhkjj-o-139" parent="1">
          <mxGeometry relative="1" as="geometry" />
        </mxCell>
        <mxCell id="TvpjpGgyVsRweBhkjj-o-141" value="Message: Scheduled maintenance&#xa;is currently in progress. We will provide updates as necessary." style="rounded=1;" vertex="1" parent="1">
          <mxGeometry x="299.9955735555668" y="509.99962880887244" width="360" height="30" as="geometry" />
        </mxCell>
        <mxCell id="TvpjpGgyVsRweBhkjj-o-142" value="" style="curved=1;noEdgeStyle=1;orthogonal=1;" edge="1" parent="1">
          <mxGeometry relative="1" as="geometry">
            <mxPoint x="480.3699999999999" y="473" as="sourcePoint" />
            <mxPoint x="480.3699999999999" y="509.99962880887233" as="targetPoint" />
          </mxGeometry>
        </mxCell>
        <mxCell id="TvpjpGgyVsRweBhkjj-o-143" value="Action: Update" style="rounded=1;" vertex="1" parent="1">
          <mxGeometry x="409.9957797473535" y="637.0032184451661" width="110" height="30" as="geometry" />
        </mxCell>
        <mxCell id="TvpjpGgyVsRweBhkjj-o-144" value="" style="curved=1;noEdgeStyle=1;orthogonal=1;" edge="1" target="TvpjpGgyVsRweBhkjj-o-143" parent="1">
          <mxGeometry relative="1" as="geometry">
            <mxPoint x="470" y="600" as="sourcePoint" />
          </mxGeometry>
        </mxCell>
        <mxCell id="TvpjpGgyVsRweBhkjj-o-145" value="Work on Fix" style="rounded=1;fillColor=#E6E6E6;" vertex="1" parent="1">
          <mxGeometry x="424.9961159395964" y="699.9981113745073" width="80" height="30" as="geometry" />
        </mxCell>
        <mxCell id="TvpjpGgyVsRweBhkjj-o-146" value="" style="curved=1;noEdgeStyle=1;orthogonal=1;" edge="1" source="TvpjpGgyVsRweBhkjj-o-143" target="TvpjpGgyVsRweBhkjj-o-145" parent="1">
          <mxGeometry relative="1" as="geometry" />
        </mxCell>
        <mxCell id="TvpjpGgyVsRweBhkjj-o-148" value="" style="curved=1;noEdgeStyle=1;orthogonal=1;" edge="1" source="TvpjpGgyVsRweBhkjj-o-145" parent="1">
          <mxGeometry relative="1" as="geometry">
            <mxPoint x="464.9961159395964" y="762" as="targetPoint" />
          </mxGeometry>
        </mxCell>
        <mxCell id="TvpjpGgyVsRweBhkjj-o-245" value="" style="edgeStyle=orthogonalEdgeStyle;rounded=0;orthogonalLoop=1;jettySize=auto;html=1;entryX=0.601;entryY=-0.033;entryDx=0;entryDy=0;entryPerimeter=0;curved=1;" edge="1" parent="1">
          <mxGeometry relative="1" as="geometry">
            <mxPoint x="837" y="770" as="sourcePoint" />
            <mxPoint x="506.64611593959626" y="715.4381113745069" as="targetPoint" />
            <Array as="points">
              <mxPoint x="837" y="715" />
            </Array>
          </mxGeometry>
        </mxCell>
        <mxCell id="TvpjpGgyVsRweBhkjj-o-267" value="Yes, +1 Cycle" style="edgeLabel;html=1;align=center;verticalAlign=middle;resizable=0;points=[];rotation=5;" vertex="1" connectable="0" parent="TvpjpGgyVsRweBhkjj-o-245">
          <mxGeometry x="0.1528" y="1" relative="1" as="geometry">
            <mxPoint x="-2" y="-8" as="offset" />
          </mxGeometry>
        </mxCell>
        <mxCell id="TvpjpGgyVsRweBhkjj-o-151" value="Provide regular updates on the status page&#xa; about the fix progress and continue working on &#xa;fix in In-Progress state." style="rounded=1;fontStyle=0" vertex="1" parent="1">
          <mxGeometry x="692" y="775" width="270" height="48" as="geometry" />
        </mxCell>
        <mxCell id="TvpjpGgyVsRweBhkjj-o-234" value="" style="edgeStyle=orthogonalEdgeStyle;rounded=0;orthogonalLoop=1;jettySize=auto;html=1;" edge="1" parent="1" source="TvpjpGgyVsRweBhkjj-o-156" target="TvpjpGgyVsRweBhkjj-o-158">
          <mxGeometry relative="1" as="geometry" />
        </mxCell>
        <mxCell id="TvpjpGgyVsRweBhkjj-o-156" value="Update the Maintenance state to Complete." style="rounded=1;fontStyle=0" vertex="1" parent="1">
          <mxGeometry x="326.43" y="1270" width="253.13" height="30" as="geometry" />
        </mxCell>
        <mxCell id="TvpjpGgyVsRweBhkjj-o-157" value="" style="curved=1;noEdgeStyle=1;orthogonal=1;" edge="1" parent="1">
          <mxGeometry relative="1" as="geometry">
            <mxPoint x="451.25948440246134" y="1109.962635156503" as="sourcePoint" />
            <mxPoint x="451.25948440246134" y="1140" as="targetPoint" />
          </mxGeometry>
        </mxCell>
        <mxCell id="TvpjpGgyVsRweBhkjj-o-237" value="" style="edgeStyle=orthogonalEdgeStyle;rounded=0;orthogonalLoop=1;jettySize=auto;html=1;" edge="1" parent="1">
          <mxGeometry relative="1" as="geometry">
            <mxPoint x="453" y="1380" as="sourcePoint" />
            <mxPoint x="453" y="1415" as="targetPoint" />
          </mxGeometry>
        </mxCell>
        <mxCell id="TvpjpGgyVsRweBhkjj-o-158" value="&#xa;Message: We have successfully released &#xa;Belden Horizon v&lt;release_no&gt; and the &#xa;scheduled maintenance has been completed.&#xa;  " style="rounded=1;" vertex="1" parent="1">
          <mxGeometry x="288" y="1329" width="330" height="50" as="geometry" />
        </mxCell>
        <mxCell id="TvpjpGgyVsRweBhkjj-o-165" value="" style="curved=1;noEdgeStyle=1;orthogonal=1;" edge="1" parent="1">
          <mxGeometry relative="1" as="geometry">
            <mxPoint x="501.6300000000001" y="1180" as="sourcePoint" />
            <mxPoint x="685" y="1180" as="targetPoint" />
          </mxGeometry>
        </mxCell>
        <mxCell id="TvpjpGgyVsRweBhkjj-o-247" value="No" style="edgeLabel;html=1;align=center;verticalAlign=middle;resizable=0;points=[];" vertex="1" connectable="0" parent="TvpjpGgyVsRweBhkjj-o-165">
          <mxGeometry x="-0.0161" y="2" relative="1" as="geometry">
            <mxPoint y="-10" as="offset" />
          </mxGeometry>
        </mxCell>
        <mxCell id="TvpjpGgyVsRweBhkjj-o-170" value="" style="curved=1;noEdgeStyle=1;orthogonal=1;entryX=0.5;entryY=0;entryDx=0;entryDy=0;exitX=0.5;exitY=1;exitDx=0;exitDy=0;" edge="1" source="TvpjpGgyVsRweBhkjj-o-253" target="TvpjpGgyVsRweBhkjj-o-156" parent="1">
          <mxGeometry relative="1" as="geometry">
            <mxPoint x="452.9950000000001" y="1170" as="sourcePoint" />
            <mxPoint x="454.9950000000001" y="1200.0001806624196" as="targetPoint" />
          </mxGeometry>
        </mxCell>
        <mxCell id="TvpjpGgyVsRweBhkjj-o-248" value="Yes" style="edgeLabel;html=1;align=center;verticalAlign=middle;resizable=0;points=[];" vertex="1" connectable="0" parent="TvpjpGgyVsRweBhkjj-o-170">
          <mxGeometry x="-0.2841" y="1" relative="1" as="geometry">
            <mxPoint x="11" as="offset" />
          </mxGeometry>
        </mxCell>
        <mxCell id="TvpjpGgyVsRweBhkjj-o-198" value="" style="edgeStyle=orthogonalEdgeStyle;rounded=0;orthogonalLoop=1;jettySize=auto;html=1;" edge="1" parent="1" source="TvpjpGgyVsRweBhkjj-o-172" target="TvpjpGgyVsRweBhkjj-o-174">
          <mxGeometry relative="1" as="geometry">
            <Array as="points">
              <mxPoint x="450" y="1597" />
              <mxPoint x="450" y="1597" />
            </Array>
          </mxGeometry>
        </mxCell>
        <mxCell id="TvpjpGgyVsRweBhkjj-o-172" value="Update: RCA/Postmortem" style="rounded=1;fillColor=#FFE6CC;" vertex="1" parent="1">
          <mxGeometry x="376.2572223772321" y="1537" width="170" height="30" as="geometry" />
        </mxCell>
        <mxCell id="TvpjpGgyVsRweBhkjj-o-174" value="END" style="rounded=1;fillColor=#D5E8D4;" vertex="1" parent="1">
          <mxGeometry x="410" y="1598" width="80" height="29" as="geometry" />
        </mxCell>
        <mxCell id="TvpjpGgyVsRweBhkjj-o-178" value="&lt;font style=&quot;font-size: 10px;&quot;&gt;No&lt;/font&gt;" style="edgeStyle=orthogonalEdgeStyle;rounded=0;html=1;jettySize=auto;orthogonalLoop=1;fontSize=11;endArrow=block;endFill=0;endSize=8;strokeWidth=1;shadow=0;labelBackgroundColor=none;" edge="1" parent="1" source="TvpjpGgyVsRweBhkjj-o-179" target="TvpjpGgyVsRweBhkjj-o-180">
          <mxGeometry x="0.0154" y="10" relative="1" as="geometry">
            <mxPoint as="offset" />
          </mxGeometry>
        </mxCell>
        <mxCell id="TvpjpGgyVsRweBhkjj-o-179" value="&lt;font style=&quot;font-size: 10px;&quot;&gt;&lt;font style=&quot;&quot;&gt;Schedule Maintenance&lt;/font&gt;&lt;span style=&quot;background-color: initial;&quot;&gt;?&lt;/span&gt;&lt;/font&gt;" style="rhombus;whiteSpace=wrap;html=1;shadow=0;fontFamily=Helvetica;fontSize=12;align=center;strokeWidth=1;spacing=6;spacingTop=-4;fillColor=#E6E6E6;" vertex="1" parent="1">
          <mxGeometry x="450" y="-119" width="100" height="80" as="geometry" />
        </mxCell>
        <mxCell id="TvpjpGgyVsRweBhkjj-o-180" value="&lt;font style=&quot;font-size: 10px;&quot;&gt;Quit&lt;/font&gt;" style="rounded=1;whiteSpace=wrap;html=1;fontSize=12;glass=0;strokeWidth=1;shadow=0;fillColor=#D5E8D4;" vertex="1" parent="1">
          <mxGeometry x="600" y="-94" width="120" height="30" as="geometry" />
        </mxCell>
        <mxCell id="TvpjpGgyVsRweBhkjj-o-129" value="&#xa;Select the affected component.&#xa;Note: You need to select at least one-affected components to enable&#xa;notifications.&#xa;" style="rounded=1;fontSize=10;" vertex="1" parent="1">
          <mxGeometry x="337.65" y="170" width="316.7" height="40" as="geometry" />
        </mxCell>
        <mxCell id="TvpjpGgyVsRweBhkjj-o-160" value="Action: Update" style="rounded=1;" vertex="1" parent="1">
          <mxGeometry x="406" y="1477" width="92.69" height="30" as="geometry" />
        </mxCell>
        <mxCell id="TvpjpGgyVsRweBhkjj-o-191" value="" style="curved=1;noEdgeStyle=1;orthogonal=1;" edge="1" parent="1">
          <mxGeometry relative="1" as="geometry">
            <mxPoint x="495" y="340" as="sourcePoint" />
            <mxPoint x="495" y="373" as="targetPoint" />
          </mxGeometry>
        </mxCell>
        <mxCell id="TvpjpGgyVsRweBhkjj-o-200" value="" style="ellipse;shape=cloud;whiteSpace=wrap;html=1;rounded=1;shadow=0;glass=0;strokeColor=default;strokeWidth=1;align=center;verticalAlign=middle;fontFamily=Helvetica;fontSize=12;fontColor=default;fillColor=default;" vertex="1" parent="1">
          <mxGeometry x="600" y="330" width="230" height="100" as="geometry" />
        </mxCell>
        <mxCell id="TvpjpGgyVsRweBhkjj-o-201" value="&lt;font style=&quot;font-size: 10px;&quot;&gt;The responsible team/memebr&lt;br&gt;will work the planed &lt;br&gt;maintenance.&lt;/font&gt;" style="text;html=1;align=left;verticalAlign=middle;resizable=0;points=[];autosize=1;strokeColor=none;fillColor=none;fontFamily=Helvetica;fontSize=12;fontColor=default;" vertex="1" parent="1">
          <mxGeometry x="647.31" y="352.5" width="160" height="60" as="geometry" />
        </mxCell>
        <mxCell id="TvpjpGgyVsRweBhkjj-o-202" value="&lt;span style=&quot;text-wrap: nowrap;&quot;&gt;&lt;font style=&quot;font-size: 10px;&quot;&gt;Note:&amp;nbsp;Issues can be created &lt;br&gt;manually and assigned in Jira &lt;br&gt;for tracking purposes.&lt;/font&gt;&lt;/span&gt;" style="shape=step;perimeter=stepPerimeter;whiteSpace=wrap;html=1;fixedSize=1;rounded=1;shadow=0;glass=0;strokeColor=default;strokeWidth=1;align=center;verticalAlign=middle;fontFamily=Helvetica;fontSize=12;fontColor=default;fillColor=default;" vertex="1" parent="1">
          <mxGeometry x="850" y="351" width="172" height="67" as="geometry" />
        </mxCell>
        <mxCell id="TvpjpGgyVsRweBhkjj-o-208" value="Mark affected components Under Maintenance" style="rounded=1;" vertex="1" parent="1">
          <mxGeometry x="300" y="570" width="310" height="30" as="geometry" />
        </mxCell>
        <mxCell id="TvpjpGgyVsRweBhkjj-o-209" value="" style="curved=1;noEdgeStyle=1;orthogonal=1;" edge="1" parent="1">
          <mxGeometry relative="1" as="geometry">
            <mxPoint x="474" y="540" as="sourcePoint" />
            <mxPoint x="474" y="570" as="targetPoint" />
          </mxGeometry>
        </mxCell>
        <mxCell id="TvpjpGgyVsRweBhkjj-o-217" value="Update the Maintenance Status to Verifying" style="rounded=1;" vertex="1" parent="1">
          <mxGeometry x="329" y="892" width="256.74" height="30" as="geometry" />
        </mxCell>
        <mxCell id="TvpjpGgyVsRweBhkjj-o-218" value="" style="curved=1;noEdgeStyle=1;orthogonal=1;exitX=0.5;exitY=1;exitDx=0;exitDy=0;entryX=0.478;entryY=-0.115;entryDx=0;entryDy=0;entryPerimeter=0;" edge="1" parent="1">
          <mxGeometry relative="1" as="geometry">
            <mxPoint x="464" y="843" as="sourcePoint" />
            <mxPoint x="461.72172" y="888.5500000000002" as="targetPoint" />
          </mxGeometry>
        </mxCell>
        <mxCell id="TvpjpGgyVsRweBhkjj-o-249" value="Yes" style="edgeLabel;html=1;align=center;verticalAlign=middle;resizable=0;points=[];" vertex="1" connectable="0" parent="TvpjpGgyVsRweBhkjj-o-218">
          <mxGeometry x="-0.1629" relative="1" as="geometry">
            <mxPoint x="15" as="offset" />
          </mxGeometry>
        </mxCell>
        <mxCell id="TvpjpGgyVsRweBhkjj-o-219" value="Message: A fixes has been deployed and we are monitoring the results." style="rounded=1;fontStyle=0" vertex="1" parent="1">
          <mxGeometry x="283" y="952" width="408" height="33" as="geometry" />
        </mxCell>
        <mxCell id="TvpjpGgyVsRweBhkjj-o-220" value="" style="curved=1;noEdgeStyle=1;orthogonal=1;" edge="1" parent="1" source="TvpjpGgyVsRweBhkjj-o-217" target="TvpjpGgyVsRweBhkjj-o-219">
          <mxGeometry relative="1" as="geometry" />
        </mxCell>
        <mxCell id="TvpjpGgyVsRweBhkjj-o-221" value="Action: Update" style="rounded=1;" vertex="1" parent="1">
          <mxGeometry x="393.9957797473535" y="1082.003218445166" width="110" height="30" as="geometry" />
        </mxCell>
        <mxCell id="TvpjpGgyVsRweBhkjj-o-222" value="" style="curved=1;noEdgeStyle=1;orthogonal=1;" edge="1" parent="1" target="TvpjpGgyVsRweBhkjj-o-221">
          <mxGeometry relative="1" as="geometry">
            <mxPoint x="454" y="1042" as="sourcePoint" />
          </mxGeometry>
        </mxCell>
        <mxCell id="TvpjpGgyVsRweBhkjj-o-223" value="Components affected: No Changes" style="rounded=1;" vertex="1" parent="1">
          <mxGeometry x="284" y="1012" width="310" height="30" as="geometry" />
        </mxCell>
        <mxCell id="TvpjpGgyVsRweBhkjj-o-224" value="" style="curved=1;noEdgeStyle=1;orthogonal=1;" edge="1" parent="1" target="TvpjpGgyVsRweBhkjj-o-223">
          <mxGeometry relative="1" as="geometry">
            <mxPoint x="457" y="982" as="sourcePoint" />
          </mxGeometry>
        </mxCell>
        <mxCell id="TvpjpGgyVsRweBhkjj-o-225" style="edgeStyle=orthogonalEdgeStyle;rounded=0;orthogonalLoop=1;jettySize=auto;html=1;exitX=0.5;exitY=1;exitDx=0;exitDy=0;" edge="1" parent="1">
          <mxGeometry relative="1" as="geometry">
            <mxPoint x="623.7362904378667" y="792.0044394230576" as="sourcePoint" />
            <mxPoint x="623.7362904378667" y="792.0044394230576" as="targetPoint" />
          </mxGeometry>
        </mxCell>
        <mxCell id="TvpjpGgyVsRweBhkjj-o-299" value="" style="edgeStyle=orthogonalEdgeStyle;curved=1;rounded=0;orthogonalLoop=1;jettySize=auto;html=1;" edge="1" parent="1" source="TvpjpGgyVsRweBhkjj-o-166" target="TvpjpGgyVsRweBhkjj-o-298">
          <mxGeometry relative="1" as="geometry" />
        </mxCell>
        <mxCell id="TvpjpGgyVsRweBhkjj-o-300" value="&lt;span style=&quot;background-color: rgb(251, 251, 251);&quot;&gt;No, After +1 cycle&lt;/span&gt;" style="edgeLabel;html=1;align=center;verticalAlign=middle;resizable=0;points=[];" vertex="1" connectable="0" parent="TvpjpGgyVsRweBhkjj-o-299">
          <mxGeometry x="-0.3646" y="-4" relative="1" as="geometry">
            <mxPoint as="offset" />
          </mxGeometry>
        </mxCell>
        <mxCell id="TvpjpGgyVsRweBhkjj-o-166" value="Return to In-Progress&#xa;depending on the new findings." style="rounded=1;" vertex="1" parent="1">
          <mxGeometry x="688" y="1158.38" width="197" height="36.63" as="geometry" />
        </mxCell>
        <mxCell id="TvpjpGgyVsRweBhkjj-o-238" value="" style="edgeStyle=orthogonalEdgeStyle;rounded=0;orthogonalLoop=1;jettySize=auto;html=1;" edge="1" parent="1" source="TvpjpGgyVsRweBhkjj-o-235" target="TvpjpGgyVsRweBhkjj-o-160">
          <mxGeometry relative="1" as="geometry" />
        </mxCell>
        <mxCell id="TvpjpGgyVsRweBhkjj-o-235" value="Mark affected components Operational" style="rounded=1;" vertex="1" parent="1">
          <mxGeometry x="298" y="1415" width="310" height="30" as="geometry" />
        </mxCell>
        <mxCell id="TvpjpGgyVsRweBhkjj-o-252" value="&lt;font style=&quot;font-size: 10px;&quot;&gt;Fix Implemented?&lt;/font&gt;" style="rhombus;whiteSpace=wrap;html=1;shadow=0;fontFamily=Helvetica;fontSize=12;align=center;strokeWidth=1;spacing=6;spacingTop=-4;fillColor=#FFB366;" vertex="1" parent="1">
          <mxGeometry x="414" y="763" width="100" height="80" as="geometry" />
        </mxCell>
        <mxCell id="TvpjpGgyVsRweBhkjj-o-253" value="&lt;font style=&quot;font-size: 10px;&quot;&gt;Is System&lt;br&gt;&amp;nbsp;Stable (4 Hours)?&lt;/font&gt;" style="rhombus;whiteSpace=wrap;html=1;shadow=0;fontFamily=Helvetica;fontSize=12;align=center;strokeWidth=1;spacing=6;spacingTop=-4;fillColor=#FFB366;" vertex="1" parent="1">
          <mxGeometry x="401" y="1140" width="100" height="80" as="geometry" />
        </mxCell>
        <mxCell id="TvpjpGgyVsRweBhkjj-o-254" value="" style="endArrow=classic;html=1;rounded=0;entryX=0;entryY=0.5;entryDx=0;entryDy=0;" edge="1" parent="1">
          <mxGeometry width="50" height="50" relative="1" as="geometry">
            <mxPoint x="800" y="380" as="sourcePoint" />
            <mxPoint x="866" y="381.5" as="targetPoint" />
          </mxGeometry>
        </mxCell>
        <mxCell id="TvpjpGgyVsRweBhkjj-o-255" value="&lt;h1 style=&quot;margin-top: 0px;&quot;&gt;Schedule Maintenance&lt;/h1&gt;&lt;p&gt;&lt;span style=&quot;font-size:11.0pt;line-height:107%;&lt;br/&gt;font-family:&amp;quot;Segoe UI&amp;quot;,sans-serif;mso-fareast-font-family:Calibri;mso-fareast-theme-font:&lt;br/&gt;minor-latin;color:#172B4D;letter-spacing:-.05pt;background:white;mso-ansi-language:&lt;br/&gt;EN-IN;mso-fareast-language:EN-US;mso-bidi-language:AR-SA&quot;&gt;Here’s an example incident communications template you can use during a scheduled maintenance&amp;nbsp;window.&lt;/span&gt;&lt;br&gt;&lt;/p&gt;" style="text;html=1;whiteSpace=wrap;overflow=hidden;rounded=0;" vertex="1" parent="1">
          <mxGeometry x="157.65" y="-320" width="662.35" height="120" as="geometry" />
        </mxCell>
        <mxCell id="TvpjpGgyVsRweBhkjj-o-268" value="" style="shape=image;verticalLabelPosition=bottom;labelBackgroundColor=default;verticalAlign=top;aspect=fixed;imageAspect=0;image=data:image/png,iVBORw0KGgoAAAANSUhEUgAAAIEAAAAaCAIAAAAfY6iHAAAI20lEQVRoBe1Ya1BTSRb2x9b82n/+nH9rXWurZoZya9ndu+r4mhF1BF87wl1RGERREFFBQXBdZARxQEUiDoYIKkQEgjA8B8JjeEoEQhAI8oZIeIVXQggEdOosl0M1l0t4uK7lWkOqK9W3++vT556vz+lz7ipY+X1oC6z60Aqs7A8rHHz4Q7DCwf83B5NvoKYLMpQQKWNbhhLquuH1r8tVWizJvuh/z/50gK2z35XgyLxi+XJX/sZwpv3guQoOx8BngbDWn98+CwQ7MVR1Lmanzq6+TXtPUTTDa9EJWbhMpzcIRJKyyrrFpMybU/f0C0SSuoa2eTMf9wCfgyEDuCby7T6fibX+4PET6MZNv/wx9+sUzQQKYowTkwDQ2dVX+Exxwe9u1JMMXKDu1lA0ExohMb1+gdEKxUuKZhJS8heY/1iH53Ag64D1IcsiAFnZcBsqX5l48y/3uGzZ52piYnooNbvEP+QRRTO2zn4CkUQgkhjGZsg0jI2LE6UuXjePuF7NKazQ6vQCkaS0vAYAYpNyLvrfo2jmxPkggUhyJzIRAIwTkwKRJLeokruXvKZRIJL09A3iYFcv6z0nLwS7+dwOjZh1o4JSBW5dUKr4zi3guMcP0QlZI3oDV9SoYYzok18iR33KKmbdt6dvUBid4ng20NnzRkOzqqFZJRBJXqn7iJDBYZ1Ykn3aJ8TW2e9aaIxWpydTpDOHg93CtyAAadh/n4ia7ey2vWC21b5XM2OF2Ynp3nGPH3gxSjMwjO6yk/GgaGaDpbPlYU+KZpCq4LuxAGB1xIu3CgB0egNFMz4BQu4W98VpFM0oapsAoLqu+fNNR9Ztc7B19vvqH2dQAoKvBEdRNHMtNIaiGQtr9y37XLHT1duPAJW618LanaKZjVYuuw9dIOBb9+IRIJMrzbc7UjSzk/FYb3mSohm/Gw8omsFDAwD5JXJzi2MUzeyz90ak5WFPrqrYn8OBagj+FDRLg1McPJFDuQq0YzAwCs9V8LgSjsbOAsxvQCdrPf5PcD+Rohlzi2M3w+NyCiuGtXzyMRYJRHNikZNHEEUzSRmFKK6x9RXaBTkAgMrqBl4sWpIDZFGl7kWZA0O6EOGMBZGDLftPKxvbcfZpegFFM+cuC/DR8RwbUZMzZ/R52dSxeS/LE+Fgo5WL+XbH6rpmxEsLypFj5KCvf8hsi72Nky+eMAAIjZBQNBMVm4548j+HAwB43gF/DIAtd0A+fetWtRoOBreutlOstqs+GNxa1ca6alk7bAxlYeUqIoffCRHGc4/tt47/yi+ZzYvmc9CrGeS+P4oTS7IpmnkXDgKmg94LZQtfPwDkICWrmDvleDaQoplx40R37wBFM+evhHFnoxOyCAd5xXKKZsSSbC7AwzeM+MGte6wFCMEIo3c57bP35i4BMFWjVXXC6AQLK67Xf2ItX3WgkrRPrOXF9eyhHjGCQs0TxX8cNYzlFlVevi76yw7WHymaycwrQ9B8DuQv2DMeI5lJnBBWXdf8jhzUvmzDrd18bscl52pHRomWyEG7qpuMAAB6cGtHF+ojTpRyZ+U1jYQDPB+8JC0qNp1w4Op96/NNR2RyJbcdcLj0xWY7rkzTHBDEZt+W39m84LXNvibOFFmyUEecKJ1SbvvBswiYz0FuUSVFM7xT2f6q5x05AABFbZObz23ilLxYpOmfE0xjk3Km4rtMrswprKBoJk1ayn0j1Adj0Z1INt52ds1evwCQnFlEODh00o9syutwZS7GQc/wm98fbTHZeobf8KQs5xHDPSYe8zl4oWyhaOa+OI0rSiZXLs4BAEyFDq+r4dxVN358Qu5k7niRrHqHDXvH4nWNflDf1MHFCERsyG5XdStqmyiaeRCXyZ0tq6gjfhCXnEtEEUz4w2TCwdnLAopm9KNjZHahDv8+ILhWzevVp7pNtjbNawIz2eFleAAwbpzYbn2OohnEDw2PUDTz/c0HZLlWp6do5pj7dTICAD7XhFwO6hrYwBL5eM6dttHK5eiZQO6qffbe862DAGT6UfzPU6cPOeDlBd8cOr9umwMAoD4nzgdxJWNyjH6AxUr4w2QCME5M7plO3vBOTkjNp2gmLPIpASzUWZADADDzG/nUU/upp477b+Y3spAsMv7nr496+IY9jMt8VlFbVlkXnZCFSaer9y2C2bT3lNlW++C7saQ+wDeMiEkdGNKpe/ovBUZgwkfu5LEx4xeb7ehdTiHCeKwPAACTS8zZWzu6LgVGoOPjYb91Lz5QEIPpprKxHYvHwmcKwsHfvzkhEqeO6A3NbZ3OnjcomiGSva6Go2v29A2qe/p9AoQbLJ2JH0xFub12F80tjqVLS0f0hvqmDpvj/0YAcjA2btx6wI2iGYcz18SS7JLnNTK5MiEln1yKxBSLcSAs+XWN7+SaK6//MP2/5grbF5Ys/cGIG39JKDzgcKmvf4hsXFCq+NtOJ5zF7E2r02NZgIMbrVxKntdw/QAAEtN+MdtqjwAUpdMb9n/HHnxse+0uBoU9Jn7w44MkMoWdoLDHuBD9oEhWvW6bA8FwD/6wVr/rn+fJ1Jd7XErLWX1IbtrSribpBpacj5+y1165oh636NUMunjdJBKwE5ecS4yAncU4YFPawtlqYK0/+7jMX2dXnzhRigVtQkp+ZXWDyYUvmzp0nNJUq9OnSUsjYlKfVdQaJybHjRMyuZJbdqKQuoY2UloDgGFsPF1aejcqKf6nPADo7h2QyZUkEKvUvY/ifxaIJHHJuY0ts2U9cqAZGB7RGzLzyoTRKbx6GwCGtfrU7BKePtx7WN2tSUz7JSo2HasEzEd5CmsGhqUF5cLolIycZ9xTSAyyBAcA0D8K0ga29fMrLSLko+wQDv5X2mt1+r/uPP71tzO53/LFLs3B8mV9XMh35GDcOLHDxj1QEIOfvAQiyfrd7OcKvGzeyhQrHMypD97KdvgJiIT7wy7f19T/N8XTb5eDtzL3QmB5TaNMrqya/j64EGbJ8RUOljTRewescPDeTbzkBiscLGmi9w5Y4eC9m3jJDf4D8CiVOR9LGnYAAAAASUVORK5CYII=;" vertex="1" parent="1">
          <mxGeometry x="361" y="-23.35" width="101" height="20.35" as="geometry" />
        </mxCell>
        <mxCell id="TvpjpGgyVsRweBhkjj-o-272" value="" style="shape=image;verticalLabelPosition=bottom;labelBackgroundColor=default;verticalAlign=top;aspect=fixed;imageAspect=0;image=data:image/png,iVBORw0KGgoAAAANSUhEUgAAAIEAAAAaCAIAAAAfY6iHAAAI20lEQVRoBe1Ya1BTSRb2x9b82n/+nH9rXWurZoZya9ndu+r4mhF1BF87wl1RGERREFFBQXBdZARxQEUiDoYIKkQEgjA8B8JjeEoEQhAI8oZIeIVXQggEdOosl0M1l0t4uK7lWkOqK9W3++vT556vz+lz7ipY+X1oC6z60Aqs7A8rHHz4Q7DCwf83B5NvoKYLMpQQKWNbhhLquuH1r8tVWizJvuh/z/50gK2z35XgyLxi+XJX/sZwpv3guQoOx8BngbDWn98+CwQ7MVR1Lmanzq6+TXtPUTTDa9EJWbhMpzcIRJKyyrrFpMybU/f0C0SSuoa2eTMf9wCfgyEDuCby7T6fibX+4PET6MZNv/wx9+sUzQQKYowTkwDQ2dVX+Exxwe9u1JMMXKDu1lA0ExohMb1+gdEKxUuKZhJS8heY/1iH53Ag64D1IcsiAFnZcBsqX5l48y/3uGzZ52piYnooNbvEP+QRRTO2zn4CkUQgkhjGZsg0jI2LE6UuXjePuF7NKazQ6vQCkaS0vAYAYpNyLvrfo2jmxPkggUhyJzIRAIwTkwKRJLeokruXvKZRIJL09A3iYFcv6z0nLwS7+dwOjZh1o4JSBW5dUKr4zi3guMcP0QlZI3oDV9SoYYzok18iR33KKmbdt6dvUBid4ng20NnzRkOzqqFZJRBJXqn7iJDBYZ1Ykn3aJ8TW2e9aaIxWpydTpDOHg93CtyAAadh/n4ia7ey2vWC21b5XM2OF2Ynp3nGPH3gxSjMwjO6yk/GgaGaDpbPlYU+KZpCq4LuxAGB1xIu3CgB0egNFMz4BQu4W98VpFM0oapsAoLqu+fNNR9Ztc7B19vvqH2dQAoKvBEdRNHMtNIaiGQtr9y37XLHT1duPAJW618LanaKZjVYuuw9dIOBb9+IRIJMrzbc7UjSzk/FYb3mSohm/Gw8omsFDAwD5JXJzi2MUzeyz90ak5WFPrqrYn8OBagj+FDRLg1McPJFDuQq0YzAwCs9V8LgSjsbOAsxvQCdrPf5PcD+Rohlzi2M3w+NyCiuGtXzyMRYJRHNikZNHEEUzSRmFKK6x9RXaBTkAgMrqBl4sWpIDZFGl7kWZA0O6EOGMBZGDLftPKxvbcfZpegFFM+cuC/DR8RwbUZMzZ/R52dSxeS/LE+Fgo5WL+XbH6rpmxEsLypFj5KCvf8hsi72Nky+eMAAIjZBQNBMVm4548j+HAwB43gF/DIAtd0A+fetWtRoOBreutlOstqs+GNxa1ca6alk7bAxlYeUqIoffCRHGc4/tt47/yi+ZzYvmc9CrGeS+P4oTS7IpmnkXDgKmg94LZQtfPwDkICWrmDvleDaQoplx40R37wBFM+evhHFnoxOyCAd5xXKKZsSSbC7AwzeM+MGte6wFCMEIo3c57bP35i4BMFWjVXXC6AQLK67Xf2ItX3WgkrRPrOXF9eyhHjGCQs0TxX8cNYzlFlVevi76yw7WHymaycwrQ9B8DuQv2DMeI5lJnBBWXdf8jhzUvmzDrd18bscl52pHRomWyEG7qpuMAAB6cGtHF+ojTpRyZ+U1jYQDPB+8JC0qNp1w4Op96/NNR2RyJbcdcLj0xWY7rkzTHBDEZt+W39m84LXNvibOFFmyUEecKJ1SbvvBswiYz0FuUSVFM7xT2f6q5x05AABFbZObz23ilLxYpOmfE0xjk3Km4rtMrswprKBoJk1ayn0j1Adj0Z1INt52ds1evwCQnFlEODh00o9syutwZS7GQc/wm98fbTHZeobf8KQs5xHDPSYe8zl4oWyhaOa+OI0rSiZXLs4BAEyFDq+r4dxVN358Qu5k7niRrHqHDXvH4nWNflDf1MHFCERsyG5XdStqmyiaeRCXyZ0tq6gjfhCXnEtEEUz4w2TCwdnLAopm9KNjZHahDv8+ILhWzevVp7pNtjbNawIz2eFleAAwbpzYbn2OohnEDw2PUDTz/c0HZLlWp6do5pj7dTICAD7XhFwO6hrYwBL5eM6dttHK5eiZQO6qffbe862DAGT6UfzPU6cPOeDlBd8cOr9umwMAoD4nzgdxJWNyjH6AxUr4w2QCME5M7plO3vBOTkjNp2gmLPIpASzUWZADADDzG/nUU/upp477b+Y3spAsMv7nr496+IY9jMt8VlFbVlkXnZCFSaer9y2C2bT3lNlW++C7saQ+wDeMiEkdGNKpe/ovBUZgwkfu5LEx4xeb7ehdTiHCeKwPAACTS8zZWzu6LgVGoOPjYb91Lz5QEIPpprKxHYvHwmcKwsHfvzkhEqeO6A3NbZ3OnjcomiGSva6Go2v29A2qe/p9AoQbLJ2JH0xFub12F80tjqVLS0f0hvqmDpvj/0YAcjA2btx6wI2iGYcz18SS7JLnNTK5MiEln1yKxBSLcSAs+XWN7+SaK6//MP2/5grbF5Ys/cGIG39JKDzgcKmvf4hsXFCq+NtOJ5zF7E2r02NZgIMbrVxKntdw/QAAEtN+MdtqjwAUpdMb9n/HHnxse+0uBoU9Jn7w44MkMoWdoLDHuBD9oEhWvW6bA8FwD/6wVr/rn+fJ1Jd7XErLWX1IbtrSribpBpacj5+y1165oh636NUMunjdJBKwE5ecS4yAncU4YFPawtlqYK0/+7jMX2dXnzhRigVtQkp+ZXWDyYUvmzp0nNJUq9OnSUsjYlKfVdQaJybHjRMyuZJbdqKQuoY2UloDgGFsPF1aejcqKf6nPADo7h2QyZUkEKvUvY/ifxaIJHHJuY0ts2U9cqAZGB7RGzLzyoTRKbx6GwCGtfrU7BKePtx7WN2tSUz7JSo2HasEzEd5CmsGhqUF5cLolIycZ9xTSAyyBAcA0D8K0ga29fMrLSLko+wQDv5X2mt1+r/uPP71tzO53/LFLs3B8mV9XMh35GDcOLHDxj1QEIOfvAQiyfrd7OcKvGzeyhQrHMypD97KdvgJiIT7wy7f19T/N8XTb5eDtzL3QmB5TaNMrqya/j64EGbJ8RUOljTRewescPDeTbzkBiscLGmi9w5Y4eC9m3jJDf4D8CiVOR9LGnYAAAAASUVORK5CYII=;" vertex="1" parent="1">
          <mxGeometry x="358" y="34.65" width="101" height="20.35" as="geometry" />
        </mxCell>
        <mxCell id="TvpjpGgyVsRweBhkjj-o-274" value="" style="shape=image;verticalLabelPosition=bottom;labelBackgroundColor=default;verticalAlign=top;aspect=fixed;imageAspect=0;image=data:image/png,iVBORw0KGgoAAAANSUhEUgAAAIEAAAAaCAIAAAAfY6iHAAAI20lEQVRoBe1Ya1BTSRb2x9b82n/+nH9rXWurZoZya9ndu+r4mhF1BF87wl1RGERREFFBQXBdZARxQEUiDoYIKkQEgjA8B8JjeEoEQhAI8oZIeIVXQggEdOosl0M1l0t4uK7lWkOqK9W3++vT556vz+lz7ipY+X1oC6z60Aqs7A8rHHz4Q7DCwf83B5NvoKYLMpQQKWNbhhLquuH1r8tVWizJvuh/z/50gK2z35XgyLxi+XJX/sZwpv3guQoOx8BngbDWn98+CwQ7MVR1Lmanzq6+TXtPUTTDa9EJWbhMpzcIRJKyyrrFpMybU/f0C0SSuoa2eTMf9wCfgyEDuCby7T6fibX+4PET6MZNv/wx9+sUzQQKYowTkwDQ2dVX+Exxwe9u1JMMXKDu1lA0ExohMb1+gdEKxUuKZhJS8heY/1iH53Ag64D1IcsiAFnZcBsqX5l48y/3uGzZ52piYnooNbvEP+QRRTO2zn4CkUQgkhjGZsg0jI2LE6UuXjePuF7NKazQ6vQCkaS0vAYAYpNyLvrfo2jmxPkggUhyJzIRAIwTkwKRJLeokruXvKZRIJL09A3iYFcv6z0nLwS7+dwOjZh1o4JSBW5dUKr4zi3guMcP0QlZI3oDV9SoYYzok18iR33KKmbdt6dvUBid4ng20NnzRkOzqqFZJRBJXqn7iJDBYZ1Ykn3aJ8TW2e9aaIxWpydTpDOHg93CtyAAadh/n4ia7ey2vWC21b5XM2OF2Ynp3nGPH3gxSjMwjO6yk/GgaGaDpbPlYU+KZpCq4LuxAGB1xIu3CgB0egNFMz4BQu4W98VpFM0oapsAoLqu+fNNR9Ztc7B19vvqH2dQAoKvBEdRNHMtNIaiGQtr9y37XLHT1duPAJW618LanaKZjVYuuw9dIOBb9+IRIJMrzbc7UjSzk/FYb3mSohm/Gw8omsFDAwD5JXJzi2MUzeyz90ak5WFPrqrYn8OBagj+FDRLg1McPJFDuQq0YzAwCs9V8LgSjsbOAsxvQCdrPf5PcD+Rohlzi2M3w+NyCiuGtXzyMRYJRHNikZNHEEUzSRmFKK6x9RXaBTkAgMrqBl4sWpIDZFGl7kWZA0O6EOGMBZGDLftPKxvbcfZpegFFM+cuC/DR8RwbUZMzZ/R52dSxeS/LE+Fgo5WL+XbH6rpmxEsLypFj5KCvf8hsi72Nky+eMAAIjZBQNBMVm4548j+HAwB43gF/DIAtd0A+fetWtRoOBreutlOstqs+GNxa1ca6alk7bAxlYeUqIoffCRHGc4/tt47/yi+ZzYvmc9CrGeS+P4oTS7IpmnkXDgKmg94LZQtfPwDkICWrmDvleDaQoplx40R37wBFM+evhHFnoxOyCAd5xXKKZsSSbC7AwzeM+MGte6wFCMEIo3c57bP35i4BMFWjVXXC6AQLK67Xf2ItX3WgkrRPrOXF9eyhHjGCQs0TxX8cNYzlFlVevi76yw7WHymaycwrQ9B8DuQv2DMeI5lJnBBWXdf8jhzUvmzDrd18bscl52pHRomWyEG7qpuMAAB6cGtHF+ojTpRyZ+U1jYQDPB+8JC0qNp1w4Op96/NNR2RyJbcdcLj0xWY7rkzTHBDEZt+W39m84LXNvibOFFmyUEecKJ1SbvvBswiYz0FuUSVFM7xT2f6q5x05AABFbZObz23ilLxYpOmfE0xjk3Km4rtMrswprKBoJk1ayn0j1Adj0Z1INt52ds1evwCQnFlEODh00o9syutwZS7GQc/wm98fbTHZeobf8KQs5xHDPSYe8zl4oWyhaOa+OI0rSiZXLs4BAEyFDq+r4dxVN358Qu5k7niRrHqHDXvH4nWNflDf1MHFCERsyG5XdStqmyiaeRCXyZ0tq6gjfhCXnEtEEUz4w2TCwdnLAopm9KNjZHahDv8+ILhWzevVp7pNtjbNawIz2eFleAAwbpzYbn2OohnEDw2PUDTz/c0HZLlWp6do5pj7dTICAD7XhFwO6hrYwBL5eM6dttHK5eiZQO6qffbe862DAGT6UfzPU6cPOeDlBd8cOr9umwMAoD4nzgdxJWNyjH6AxUr4w2QCME5M7plO3vBOTkjNp2gmLPIpASzUWZADADDzG/nUU/upp477b+Y3spAsMv7nr496+IY9jMt8VlFbVlkXnZCFSaer9y2C2bT3lNlW++C7saQ+wDeMiEkdGNKpe/ovBUZgwkfu5LEx4xeb7ehdTiHCeKwPAACTS8zZWzu6LgVGoOPjYb91Lz5QEIPpprKxHYvHwmcKwsHfvzkhEqeO6A3NbZ3OnjcomiGSva6Go2v29A2qe/p9AoQbLJ2JH0xFub12F80tjqVLS0f0hvqmDpvj/0YAcjA2btx6wI2iGYcz18SS7JLnNTK5MiEln1yKxBSLcSAs+XWN7+SaK6//MP2/5grbF5Ys/cGIG39JKDzgcKmvf4hsXFCq+NtOJ5zF7E2r02NZgIMbrVxKntdw/QAAEtN+MdtqjwAUpdMb9n/HHnxse+0uBoU9Jn7w44MkMoWdoLDHuBD9oEhWvW6bA8FwD/6wVr/rn+fJ1Jd7XErLWX1IbtrSribpBpacj5+y1165oh636NUMunjdJBKwE5ecS4yAncU4YFPawtlqYK0/+7jMX2dXnzhRigVtQkp+ZXWDyYUvmzp0nNJUq9OnSUsjYlKfVdQaJybHjRMyuZJbdqKQuoY2UloDgGFsPF1aejcqKf6nPADo7h2QyZUkEKvUvY/ifxaIJHHJuY0ts2U9cqAZGB7RGzLzyoTRKbx6GwCGtfrU7BKePtx7WN2tSUz7JSo2HasEzEd5CmsGhqUF5cLolIycZ9xTSAyyBAcA0D8K0ga29fMrLSLko+wQDv5X2mt1+r/uPP71tzO53/LFLs3B8mV9XMh35GDcOLHDxj1QEIOfvAQiyfrd7OcKvGzeyhQrHMypD97KdvgJiIT7wy7f19T/N8XTb5eDtzL3QmB5TaNMrqya/j64EGbJ8RUOljTRewescPDeTbzkBiscLGmi9w5Y4eC9m3jJDf4D8CiVOR9LGnYAAAAASUVORK5CYII=;" vertex="1" parent="1">
          <mxGeometry x="344" y="95.65" width="101" height="20.35" as="geometry" />
        </mxCell>
        <mxCell id="TvpjpGgyVsRweBhkjj-o-275" value="" style="shape=image;verticalLabelPosition=bottom;labelBackgroundColor=default;verticalAlign=top;aspect=fixed;imageAspect=0;image=data:image/png,iVBORw0KGgoAAAANSUhEUgAAAIEAAAAaCAIAAAAfY6iHAAAI20lEQVRoBe1Ya1BTSRb2x9b82n/+nH9rXWurZoZya9ndu+r4mhF1BF87wl1RGERREFFBQXBdZARxQEUiDoYIKkQEgjA8B8JjeEoEQhAI8oZIeIVXQggEdOosl0M1l0t4uK7lWkOqK9W3++vT556vz+lz7ipY+X1oC6z60Aqs7A8rHHz4Q7DCwf83B5NvoKYLMpQQKWNbhhLquuH1r8tVWizJvuh/z/50gK2z35XgyLxi+XJX/sZwpv3guQoOx8BngbDWn98+CwQ7MVR1Lmanzq6+TXtPUTTDa9EJWbhMpzcIRJKyyrrFpMybU/f0C0SSuoa2eTMf9wCfgyEDuCby7T6fibX+4PET6MZNv/wx9+sUzQQKYowTkwDQ2dVX+Exxwe9u1JMMXKDu1lA0ExohMb1+gdEKxUuKZhJS8heY/1iH53Ag64D1IcsiAFnZcBsqX5l48y/3uGzZ52piYnooNbvEP+QRRTO2zn4CkUQgkhjGZsg0jI2LE6UuXjePuF7NKazQ6vQCkaS0vAYAYpNyLvrfo2jmxPkggUhyJzIRAIwTkwKRJLeokruXvKZRIJL09A3iYFcv6z0nLwS7+dwOjZh1o4JSBW5dUKr4zi3guMcP0QlZI3oDV9SoYYzok18iR33KKmbdt6dvUBid4ng20NnzRkOzqqFZJRBJXqn7iJDBYZ1Ykn3aJ8TW2e9aaIxWpydTpDOHg93CtyAAadh/n4ia7ey2vWC21b5XM2OF2Ynp3nGPH3gxSjMwjO6yk/GgaGaDpbPlYU+KZpCq4LuxAGB1xIu3CgB0egNFMz4BQu4W98VpFM0oapsAoLqu+fNNR9Ztc7B19vvqH2dQAoKvBEdRNHMtNIaiGQtr9y37XLHT1duPAJW618LanaKZjVYuuw9dIOBb9+IRIJMrzbc7UjSzk/FYb3mSohm/Gw8omsFDAwD5JXJzi2MUzeyz90ak5WFPrqrYn8OBagj+FDRLg1McPJFDuQq0YzAwCs9V8LgSjsbOAsxvQCdrPf5PcD+Rohlzi2M3w+NyCiuGtXzyMRYJRHNikZNHEEUzSRmFKK6x9RXaBTkAgMrqBl4sWpIDZFGl7kWZA0O6EOGMBZGDLftPKxvbcfZpegFFM+cuC/DR8RwbUZMzZ/R52dSxeS/LE+Fgo5WL+XbH6rpmxEsLypFj5KCvf8hsi72Nky+eMAAIjZBQNBMVm4548j+HAwB43gF/DIAtd0A+fetWtRoOBreutlOstqs+GNxa1ca6alk7bAxlYeUqIoffCRHGc4/tt47/yi+ZzYvmc9CrGeS+P4oTS7IpmnkXDgKmg94LZQtfPwDkICWrmDvleDaQoplx40R37wBFM+evhHFnoxOyCAd5xXKKZsSSbC7AwzeM+MGte6wFCMEIo3c57bP35i4BMFWjVXXC6AQLK67Xf2ItX3WgkrRPrOXF9eyhHjGCQs0TxX8cNYzlFlVevi76yw7WHymaycwrQ9B8DuQv2DMeI5lJnBBWXdf8jhzUvmzDrd18bscl52pHRomWyEG7qpuMAAB6cGtHF+ojTpRyZ+U1jYQDPB+8JC0qNp1w4Op96/NNR2RyJbcdcLj0xWY7rkzTHBDEZt+W39m84LXNvibOFFmyUEecKJ1SbvvBswiYz0FuUSVFM7xT2f6q5x05AABFbZObz23ilLxYpOmfE0xjk3Km4rtMrswprKBoJk1ayn0j1Adj0Z1INt52ds1evwCQnFlEODh00o9syutwZS7GQc/wm98fbTHZeobf8KQs5xHDPSYe8zl4oWyhaOa+OI0rSiZXLs4BAEyFDq+r4dxVN358Qu5k7niRrHqHDXvH4nWNflDf1MHFCERsyG5XdStqmyiaeRCXyZ0tq6gjfhCXnEtEEUz4w2TCwdnLAopm9KNjZHahDv8+ILhWzevVp7pNtjbNawIz2eFleAAwbpzYbn2OohnEDw2PUDTz/c0HZLlWp6do5pj7dTICAD7XhFwO6hrYwBL5eM6dttHK5eiZQO6qffbe862DAGT6UfzPU6cPOeDlBd8cOr9umwMAoD4nzgdxJWNyjH6AxUr4w2QCME5M7plO3vBOTkjNp2gmLPIpASzUWZADADDzG/nUU/upp477b+Y3spAsMv7nr496+IY9jMt8VlFbVlkXnZCFSaer9y2C2bT3lNlW++C7saQ+wDeMiEkdGNKpe/ovBUZgwkfu5LEx4xeb7ehdTiHCeKwPAACTS8zZWzu6LgVGoOPjYb91Lz5QEIPpprKxHYvHwmcKwsHfvzkhEqeO6A3NbZ3OnjcomiGSva6Go2v29A2qe/p9AoQbLJ2JH0xFub12F80tjqVLS0f0hvqmDpvj/0YAcjA2btx6wI2iGYcz18SS7JLnNTK5MiEln1yKxBSLcSAs+XWN7+SaK6//MP2/5grbF5Ys/cGIG39JKDzgcKmvf4hsXFCq+NtOJ5zF7E2r02NZgIMbrVxKntdw/QAAEtN+MdtqjwAUpdMb9n/HHnxse+0uBoU9Jn7w44MkMoWdoLDHuBD9oEhWvW6bA8FwD/6wVr/rn+fJ1Jd7XErLWX1IbtrSribpBpacj5+y1165oh636NUMunjdJBKwE5ecS4yAncU4YFPawtlqYK0/+7jMX2dXnzhRigVtQkp+ZXWDyYUvmzp0nNJUq9OnSUsjYlKfVdQaJybHjRMyuZJbdqKQuoY2UloDgGFsPF1aejcqKf6nPADo7h2QyZUkEKvUvY/ifxaIJHHJuY0ts2U9cqAZGB7RGzLzyoTRKbx6GwCGtfrU7BKePtx7WN2tSUz7JSo2HasEzEd5CmsGhqUF5cLolIycZ9xTSAyyBAcA0D8K0ga29fMrLSLko+wQDv5X2mt1+r/uPP71tzO53/LFLs3B8mV9XMh35GDcOLHDxj1QEIOfvAQiyfrd7OcKvGzeyhQrHMypD97KdvgJiIT7wy7f19T/N8XTb5eDtzL3QmB5TaNMrqya/j64EGbJ8RUOljTRewescPDeTbzkBiscLGmi9w5Y4eC9m3jJDf4D8CiVOR9LGnYAAAAASUVORK5CYII=;" vertex="1" parent="1">
          <mxGeometry x="338.92" y="152" width="101" height="20.35" as="geometry" />
        </mxCell>
        <mxCell id="TvpjpGgyVsRweBhkjj-o-276" value="" style="shape=image;verticalLabelPosition=bottom;labelBackgroundColor=default;verticalAlign=top;aspect=fixed;imageAspect=0;image=data:image/png,iVBORw0KGgoAAAANSUhEUgAAAIEAAAAaCAIAAAAfY6iHAAAI20lEQVRoBe1Ya1BTSRb2x9b82n/+nH9rXWurZoZya9ndu+r4mhF1BF87wl1RGERREFFBQXBdZARxQEUiDoYIKkQEgjA8B8JjeEoEQhAI8oZIeIVXQggEdOosl0M1l0t4uK7lWkOqK9W3++vT556vz+lz7ipY+X1oC6z60Aqs7A8rHHz4Q7DCwf83B5NvoKYLMpQQKWNbhhLquuH1r8tVWizJvuh/z/50gK2z35XgyLxi+XJX/sZwpv3guQoOx8BngbDWn98+CwQ7MVR1Lmanzq6+TXtPUTTDa9EJWbhMpzcIRJKyyrrFpMybU/f0C0SSuoa2eTMf9wCfgyEDuCby7T6fibX+4PET6MZNv/wx9+sUzQQKYowTkwDQ2dVX+Exxwe9u1JMMXKDu1lA0ExohMb1+gdEKxUuKZhJS8heY/1iH53Ag64D1IcsiAFnZcBsqX5l48y/3uGzZ52piYnooNbvEP+QRRTO2zn4CkUQgkhjGZsg0jI2LE6UuXjePuF7NKazQ6vQCkaS0vAYAYpNyLvrfo2jmxPkggUhyJzIRAIwTkwKRJLeokruXvKZRIJL09A3iYFcv6z0nLwS7+dwOjZh1o4JSBW5dUKr4zi3guMcP0QlZI3oDV9SoYYzok18iR33KKmbdt6dvUBid4ng20NnzRkOzqqFZJRBJXqn7iJDBYZ1Ykn3aJ8TW2e9aaIxWpydTpDOHg93CtyAAadh/n4ia7ey2vWC21b5XM2OF2Ynp3nGPH3gxSjMwjO6yk/GgaGaDpbPlYU+KZpCq4LuxAGB1xIu3CgB0egNFMz4BQu4W98VpFM0oapsAoLqu+fNNR9Ztc7B19vvqH2dQAoKvBEdRNHMtNIaiGQtr9y37XLHT1duPAJW618LanaKZjVYuuw9dIOBb9+IRIJMrzbc7UjSzk/FYb3mSohm/Gw8omsFDAwD5JXJzi2MUzeyz90ak5WFPrqrYn8OBagj+FDRLg1McPJFDuQq0YzAwCs9V8LgSjsbOAsxvQCdrPf5PcD+Rohlzi2M3w+NyCiuGtXzyMRYJRHNikZNHEEUzSRmFKK6x9RXaBTkAgMrqBl4sWpIDZFGl7kWZA0O6EOGMBZGDLftPKxvbcfZpegFFM+cuC/DR8RwbUZMzZ/R52dSxeS/LE+Fgo5WL+XbH6rpmxEsLypFj5KCvf8hsi72Nky+eMAAIjZBQNBMVm4548j+HAwB43gF/DIAtd0A+fetWtRoOBreutlOstqs+GNxa1ca6alk7bAxlYeUqIoffCRHGc4/tt47/yi+ZzYvmc9CrGeS+P4oTS7IpmnkXDgKmg94LZQtfPwDkICWrmDvleDaQoplx40R37wBFM+evhHFnoxOyCAd5xXKKZsSSbC7AwzeM+MGte6wFCMEIo3c57bP35i4BMFWjVXXC6AQLK67Xf2ItX3WgkrRPrOXF9eyhHjGCQs0TxX8cNYzlFlVevi76yw7WHymaycwrQ9B8DuQv2DMeI5lJnBBWXdf8jhzUvmzDrd18bscl52pHRomWyEG7qpuMAAB6cGtHF+ojTpRyZ+U1jYQDPB+8JC0qNp1w4Op96/NNR2RyJbcdcLj0xWY7rkzTHBDEZt+W39m84LXNvibOFFmyUEecKJ1SbvvBswiYz0FuUSVFM7xT2f6q5x05AABFbZObz23ilLxYpOmfE0xjk3Km4rtMrswprKBoJk1ayn0j1Adj0Z1INt52ds1evwCQnFlEODh00o9syutwZS7GQc/wm98fbTHZeobf8KQs5xHDPSYe8zl4oWyhaOa+OI0rSiZXLs4BAEyFDq+r4dxVN358Qu5k7niRrHqHDXvH4nWNflDf1MHFCERsyG5XdStqmyiaeRCXyZ0tq6gjfhCXnEtEEUz4w2TCwdnLAopm9KNjZHahDv8+ILhWzevVp7pNtjbNawIz2eFleAAwbpzYbn2OohnEDw2PUDTz/c0HZLlWp6do5pj7dTICAD7XhFwO6hrYwBL5eM6dttHK5eiZQO6qffbe862DAGT6UfzPU6cPOeDlBd8cOr9umwMAoD4nzgdxJWNyjH6AxUr4w2QCME5M7plO3vBOTkjNp2gmLPIpASzUWZADADDzG/nUU/upp477b+Y3spAsMv7nr496+IY9jMt8VlFbVlkXnZCFSaer9y2C2bT3lNlW++C7saQ+wDeMiEkdGNKpe/ovBUZgwkfu5LEx4xeb7ehdTiHCeKwPAACTS8zZWzu6LgVGoOPjYb91Lz5QEIPpprKxHYvHwmcKwsHfvzkhEqeO6A3NbZ3OnjcomiGSva6Go2v29A2qe/p9AoQbLJ2JH0xFub12F80tjqVLS0f0hvqmDpvj/0YAcjA2btx6wI2iGYcz18SS7JLnNTK5MiEln1yKxBSLcSAs+XWN7+SaK6//MP2/5grbF5Ys/cGIG39JKDzgcKmvf4hsXFCq+NtOJ5zF7E2r02NZgIMbrVxKntdw/QAAEtN+MdtqjwAUpdMb9n/HHnxse+0uBoU9Jn7w44MkMoWdoLDHuBD9oEhWvW6bA8FwD/6wVr/rn+fJ1Jd7XErLWX1IbtrSribpBpacj5+y1165oh636NUMunjdJBKwE5ecS4yAncU4YFPawtlqYK0/+7jMX2dXnzhRigVtQkp+ZXWDyYUvmzp0nNJUq9OnSUsjYlKfVdQaJybHjRMyuZJbdqKQuoY2UloDgGFsPF1aejcqKf6nPADo7h2QyZUkEKvUvY/ifxaIJHHJuY0ts2U9cqAZGB7RGzLzyoTRKbx6GwCGtfrU7BKePtx7WN2tSUz7JSo2HasEzEd5CmsGhqUF5cLolIycZ9xTSAyyBAcA0D8K0ga29fMrLSLko+wQDv5X2mt1+r/uPP71tzO53/LFLs3B8mV9XMh35GDcOLHDxj1QEIOfvAQiyfrd7OcKvGzeyhQrHMypD97KdvgJiIT7wy7f19T/N8XTb5eDtzL3QmB5TaNMrqya/j64EGbJ8RUOljTRewescPDeTbzkBiscLGmi9w5Y4eC9m3jJDf4D8CiVOR9LGnYAAAAASUVORK5CYII=;" vertex="1" parent="1">
          <mxGeometry x="378.92" y="224" width="101" height="20.35" as="geometry" />
        </mxCell>
        <mxCell id="TvpjpGgyVsRweBhkjj-o-277" value="" style="shape=image;verticalLabelPosition=bottom;labelBackgroundColor=default;verticalAlign=top;aspect=fixed;imageAspect=0;image=data:image/png,iVBORw0KGgoAAAANSUhEUgAAAIEAAAAaCAIAAAAfY6iHAAAI20lEQVRoBe1Ya1BTSRb2x9b82n/+nH9rXWurZoZya9ndu+r4mhF1BF87wl1RGERREFFBQXBdZARxQEUiDoYIKkQEgjA8B8JjeEoEQhAI8oZIeIVXQggEdOosl0M1l0t4uK7lWkOqK9W3++vT556vz+lz7ipY+X1oC6z60Aqs7A8rHHz4Q7DCwf83B5NvoKYLMpQQKWNbhhLquuH1r8tVWizJvuh/z/50gK2z35XgyLxi+XJX/sZwpv3guQoOx8BngbDWn98+CwQ7MVR1Lmanzq6+TXtPUTTDa9EJWbhMpzcIRJKyyrrFpMybU/f0C0SSuoa2eTMf9wCfgyEDuCby7T6fibX+4PET6MZNv/wx9+sUzQQKYowTkwDQ2dVX+Exxwe9u1JMMXKDu1lA0ExohMb1+gdEKxUuKZhJS8heY/1iH53Ag64D1IcsiAFnZcBsqX5l48y/3uGzZ52piYnooNbvEP+QRRTO2zn4CkUQgkhjGZsg0jI2LE6UuXjePuF7NKazQ6vQCkaS0vAYAYpNyLvrfo2jmxPkggUhyJzIRAIwTkwKRJLeokruXvKZRIJL09A3iYFcv6z0nLwS7+dwOjZh1o4JSBW5dUKr4zi3guMcP0QlZI3oDV9SoYYzok18iR33KKmbdt6dvUBid4ng20NnzRkOzqqFZJRBJXqn7iJDBYZ1Ykn3aJ8TW2e9aaIxWpydTpDOHg93CtyAAadh/n4ia7ey2vWC21b5XM2OF2Ynp3nGPH3gxSjMwjO6yk/GgaGaDpbPlYU+KZpCq4LuxAGB1xIu3CgB0egNFMz4BQu4W98VpFM0oapsAoLqu+fNNR9Ztc7B19vvqH2dQAoKvBEdRNHMtNIaiGQtr9y37XLHT1duPAJW618LanaKZjVYuuw9dIOBb9+IRIJMrzbc7UjSzk/FYb3mSohm/Gw8omsFDAwD5JXJzi2MUzeyz90ak5WFPrqrYn8OBagj+FDRLg1McPJFDuQq0YzAwCs9V8LgSjsbOAsxvQCdrPf5PcD+Rohlzi2M3w+NyCiuGtXzyMRYJRHNikZNHEEUzSRmFKK6x9RXaBTkAgMrqBl4sWpIDZFGl7kWZA0O6EOGMBZGDLftPKxvbcfZpegFFM+cuC/DR8RwbUZMzZ/R52dSxeS/LE+Fgo5WL+XbH6rpmxEsLypFj5KCvf8hsi72Nky+eMAAIjZBQNBMVm4548j+HAwB43gF/DIAtd0A+fetWtRoOBreutlOstqs+GNxa1ca6alk7bAxlYeUqIoffCRHGc4/tt47/yi+ZzYvmc9CrGeS+P4oTS7IpmnkXDgKmg94LZQtfPwDkICWrmDvleDaQoplx40R37wBFM+evhHFnoxOyCAd5xXKKZsSSbC7AwzeM+MGte6wFCMEIo3c57bP35i4BMFWjVXXC6AQLK67Xf2ItX3WgkrRPrOXF9eyhHjGCQs0TxX8cNYzlFlVevi76yw7WHymaycwrQ9B8DuQv2DMeI5lJnBBWXdf8jhzUvmzDrd18bscl52pHRomWyEG7qpuMAAB6cGtHF+ojTpRyZ+U1jYQDPB+8JC0qNp1w4Op96/NNR2RyJbcdcLj0xWY7rkzTHBDEZt+W39m84LXNvibOFFmyUEecKJ1SbvvBswiYz0FuUSVFM7xT2f6q5x05AABFbZObz23ilLxYpOmfE0xjk3Km4rtMrswprKBoJk1ayn0j1Adj0Z1INt52ds1evwCQnFlEODh00o9syutwZS7GQc/wm98fbTHZeobf8KQs5xHDPSYe8zl4oWyhaOa+OI0rSiZXLs4BAEyFDq+r4dxVN358Qu5k7niRrHqHDXvH4nWNflDf1MHFCERsyG5XdStqmyiaeRCXyZ0tq6gjfhCXnEtEEUz4w2TCwdnLAopm9KNjZHahDv8+ILhWzevVp7pNtjbNawIz2eFleAAwbpzYbn2OohnEDw2PUDTz/c0HZLlWp6do5pj7dTICAD7XhFwO6hrYwBL5eM6dttHK5eiZQO6qffbe862DAGT6UfzPU6cPOeDlBd8cOr9umwMAoD4nzgdxJWNyjH6AxUr4w2QCME5M7plO3vBOTkjNp2gmLPIpASzUWZADADDzG/nUU/upp477b+Y3spAsMv7nr496+IY9jMt8VlFbVlkXnZCFSaer9y2C2bT3lNlW++C7saQ+wDeMiEkdGNKpe/ovBUZgwkfu5LEx4xeb7ehdTiHCeKwPAACTS8zZWzu6LgVGoOPjYb91Lz5QEIPpprKxHYvHwmcKwsHfvzkhEqeO6A3NbZ3OnjcomiGSva6Go2v29A2qe/p9AoQbLJ2JH0xFub12F80tjqVLS0f0hvqmDpvj/0YAcjA2btx6wI2iGYcz18SS7JLnNTK5MiEln1yKxBSLcSAs+XWN7+SaK6//MP2/5grbF5Ys/cGIG39JKDzgcKmvf4hsXFCq+NtOJ5zF7E2r02NZgIMbrVxKntdw/QAAEtN+MdtqjwAUpdMb9n/HHnxse+0uBoU9Jn7w44MkMoWdoLDHuBD9oEhWvW6bA8FwD/6wVr/rn+fJ1Jd7XErLWX1IbtrSribpBpacj5+y1165oh636NUMunjdJBKwE5ecS4yAncU4YFPawtlqYK0/+7jMX2dXnzhRigVtQkp+ZXWDyYUvmzp0nNJUq9OnSUsjYlKfVdQaJybHjRMyuZJbdqKQuoY2UloDgGFsPF1aejcqKf6nPADo7h2QyZUkEKvUvY/ifxaIJHHJuY0ts2U9cqAZGB7RGzLzyoTRKbx6GwCGtfrU7BKePtx7WN2tSUz7JSo2HasEzEd5CmsGhqUF5cLolIycZ9xTSAyyBAcA0D8K0ga29fMrLSLko+wQDv5X2mt1+r/uPP71tzO53/LFLs3B8mV9XMh35GDcOLHDxj1QEIOfvAQiyfrd7OcKvGzeyhQrHMypD97KdvgJiIT7wy7f19T/N8XTb5eDtzL3QmB5TaNMrqya/j64EGbJ8RUOljTRewescPDeTbzkBiscLGmi9w5Y4eC9m3jJDf4D8CiVOR9LGnYAAAAASUVORK5CYII=;" vertex="1" parent="1">
          <mxGeometry x="388.92" y="295" width="101" height="20.35" as="geometry" />
        </mxCell>
        <mxCell id="TvpjpGgyVsRweBhkjj-o-279" value="" style="shape=image;verticalLabelPosition=bottom;labelBackgroundColor=default;verticalAlign=top;aspect=fixed;imageAspect=0;image=data:image/png,iVBORw0KGgoAAAANSUhEUgAAAIEAAAAaCAIAAAAfY6iHAAAI20lEQVRoBe1Ya1BTSRb2x9b82n/+nH9rXWurZoZya9ndu+r4mhF1BF87wl1RGERREFFBQXBdZARxQEUiDoYIKkQEgjA8B8JjeEoEQhAI8oZIeIVXQggEdOosl0M1l0t4uK7lWkOqK9W3++vT556vz+lz7ipY+X1oC6z60Aqs7A8rHHz4Q7DCwf83B5NvoKYLMpQQKWNbhhLquuH1r8tVWizJvuh/z/50gK2z35XgyLxi+XJX/sZwpv3guQoOx8BngbDWn98+CwQ7MVR1Lmanzq6+TXtPUTTDa9EJWbhMpzcIRJKyyrrFpMybU/f0C0SSuoa2eTMf9wCfgyEDuCby7T6fibX+4PET6MZNv/wx9+sUzQQKYowTkwDQ2dVX+Exxwe9u1JMMXKDu1lA0ExohMb1+gdEKxUuKZhJS8heY/1iH53Ag64D1IcsiAFnZcBsqX5l48y/3uGzZ52piYnooNbvEP+QRRTO2zn4CkUQgkhjGZsg0jI2LE6UuXjePuF7NKazQ6vQCkaS0vAYAYpNyLvrfo2jmxPkggUhyJzIRAIwTkwKRJLeokruXvKZRIJL09A3iYFcv6z0nLwS7+dwOjZh1o4JSBW5dUKr4zi3guMcP0QlZI3oDV9SoYYzok18iR33KKmbdt6dvUBid4ng20NnzRkOzqqFZJRBJXqn7iJDBYZ1Ykn3aJ8TW2e9aaIxWpydTpDOHg93CtyAAadh/n4ia7ey2vWC21b5XM2OF2Ynp3nGPH3gxSjMwjO6yk/GgaGaDpbPlYU+KZpCq4LuxAGB1xIu3CgB0egNFMz4BQu4W98VpFM0oapsAoLqu+fNNR9Ztc7B19vvqH2dQAoKvBEdRNHMtNIaiGQtr9y37XLHT1duPAJW618LanaKZjVYuuw9dIOBb9+IRIJMrzbc7UjSzk/FYb3mSohm/Gw8omsFDAwD5JXJzi2MUzeyz90ak5WFPrqrYn8OBagj+FDRLg1McPJFDuQq0YzAwCs9V8LgSjsbOAsxvQCdrPf5PcD+Rohlzi2M3w+NyCiuGtXzyMRYJRHNikZNHEEUzSRmFKK6x9RXaBTkAgMrqBl4sWpIDZFGl7kWZA0O6EOGMBZGDLftPKxvbcfZpegFFM+cuC/DR8RwbUZMzZ/R52dSxeS/LE+Fgo5WL+XbH6rpmxEsLypFj5KCvf8hsi72Nky+eMAAIjZBQNBMVm4548j+HAwB43gF/DIAtd0A+fetWtRoOBreutlOstqs+GNxa1ca6alk7bAxlYeUqIoffCRHGc4/tt47/yi+ZzYvmc9CrGeS+P4oTS7IpmnkXDgKmg94LZQtfPwDkICWrmDvleDaQoplx40R37wBFM+evhHFnoxOyCAd5xXKKZsSSbC7AwzeM+MGte6wFCMEIo3c57bP35i4BMFWjVXXC6AQLK67Xf2ItX3WgkrRPrOXF9eyhHjGCQs0TxX8cNYzlFlVevi76yw7WHymaycwrQ9B8DuQv2DMeI5lJnBBWXdf8jhzUvmzDrd18bscl52pHRomWyEG7qpuMAAB6cGtHF+ojTpRyZ+U1jYQDPB+8JC0qNp1w4Op96/NNR2RyJbcdcLj0xWY7rkzTHBDEZt+W39m84LXNvibOFFmyUEecKJ1SbvvBswiYz0FuUSVFM7xT2f6q5x05AABFbZObz23ilLxYpOmfE0xjk3Km4rtMrswprKBoJk1ayn0j1Adj0Z1INt52ds1evwCQnFlEODh00o9syutwZS7GQc/wm98fbTHZeobf8KQs5xHDPSYe8zl4oWyhaOa+OI0rSiZXLs4BAEyFDq+r4dxVN358Qu5k7niRrHqHDXvH4nWNflDf1MHFCERsyG5XdStqmyiaeRCXyZ0tq6gjfhCXnEtEEUz4w2TCwdnLAopm9KNjZHahDv8+ILhWzevVp7pNtjbNawIz2eFleAAwbpzYbn2OohnEDw2PUDTz/c0HZLlWp6do5pj7dTICAD7XhFwO6hrYwBL5eM6dttHK5eiZQO6qffbe862DAGT6UfzPU6cPOeDlBd8cOr9umwMAoD4nzgdxJWNyjH6AxUr4w2QCME5M7plO3vBOTkjNp2gmLPIpASzUWZADADDzG/nUU/upp477b+Y3spAsMv7nr496+IY9jMt8VlFbVlkXnZCFSaer9y2C2bT3lNlW++C7saQ+wDeMiEkdGNKpe/ovBUZgwkfu5LEx4xeb7ehdTiHCeKwPAACTS8zZWzu6LgVGoOPjYb91Lz5QEIPpprKxHYvHwmcKwsHfvzkhEqeO6A3NbZ3OnjcomiGSva6Go2v29A2qe/p9AoQbLJ2JH0xFub12F80tjqVLS0f0hvqmDpvj/0YAcjA2btx6wI2iGYcz18SS7JLnNTK5MiEln1yKxBSLcSAs+XWN7+SaK6//MP2/5grbF5Ys/cGIG39JKDzgcKmvf4hsXFCq+NtOJ5zF7E2r02NZgIMbrVxKntdw/QAAEtN+MdtqjwAUpdMb9n/HHnxse+0uBoU9Jn7w44MkMoWdoLDHuBD9oEhWvW6bA8FwD/6wVr/rn+fJ1Jd7XErLWX1IbtrSribpBpacj5+y1165oh636NUMunjdJBKwE5ecS4yAncU4YFPawtlqYK0/+7jMX2dXnzhRigVtQkp+ZXWDyYUvmzp0nNJUq9OnSUsjYlKfVdQaJybHjRMyuZJbdqKQuoY2UloDgGFsPF1aejcqKf6nPADo7h2QyZUkEKvUvY/ifxaIJHHJuY0ts2U9cqAZGB7RGzLzyoTRKbx6GwCGtfrU7BKePtx7WN2tSUz7JSo2HasEzEd5CmsGhqUF5cLolIycZ9xTSAyyBAcA0D8K0ga29fMrLSLko+wQDv5X2mt1+r/uPP71tzO53/LFLs3B8mV9XMh35GDcOLHDxj1QEIOfvAQiyfrd7OcKvGzeyhQrHMypD97KdvgJiIT7wy7f19T/N8XTb5eDtzL3QmB5TaNMrqya/j64EGbJ8RUOljTRewescPDeTbzkBiscLGmi9w5Y4eC9m3jJDf4D8CiVOR9LGnYAAAAASUVORK5CYII=;" vertex="1" parent="1">
          <mxGeometry x="345.92" y="428" width="101" height="20.35" as="geometry" />
        </mxCell>
        <mxCell id="TvpjpGgyVsRweBhkjj-o-280" value="" style="shape=image;verticalLabelPosition=bottom;labelBackgroundColor=default;verticalAlign=top;aspect=fixed;imageAspect=0;image=data:image/png,iVBORw0KGgoAAAANSUhEUgAAAIEAAAAaCAIAAAAfY6iHAAAI20lEQVRoBe1Ya1BTSRb2x9b82n/+nH9rXWurZoZya9ndu+r4mhF1BF87wl1RGERREFFBQXBdZARxQEUiDoYIKkQEgjA8B8JjeEoEQhAI8oZIeIVXQggEdOosl0M1l0t4uK7lWkOqK9W3++vT556vz+lz7ipY+X1oC6z60Aqs7A8rHHz4Q7DCwf83B5NvoKYLMpQQKWNbhhLquuH1r8tVWizJvuh/z/50gK2z35XgyLxi+XJX/sZwpv3guQoOx8BngbDWn98+CwQ7MVR1Lmanzq6+TXtPUTTDa9EJWbhMpzcIRJKyyrrFpMybU/f0C0SSuoa2eTMf9wCfgyEDuCby7T6fibX+4PET6MZNv/wx9+sUzQQKYowTkwDQ2dVX+Exxwe9u1JMMXKDu1lA0ExohMb1+gdEKxUuKZhJS8heY/1iH53Ag64D1IcsiAFnZcBsqX5l48y/3uGzZ52piYnooNbvEP+QRRTO2zn4CkUQgkhjGZsg0jI2LE6UuXjePuF7NKazQ6vQCkaS0vAYAYpNyLvrfo2jmxPkggUhyJzIRAIwTkwKRJLeokruXvKZRIJL09A3iYFcv6z0nLwS7+dwOjZh1o4JSBW5dUKr4zi3guMcP0QlZI3oDV9SoYYzok18iR33KKmbdt6dvUBid4ng20NnzRkOzqqFZJRBJXqn7iJDBYZ1Ykn3aJ8TW2e9aaIxWpydTpDOHg93CtyAAadh/n4ia7ey2vWC21b5XM2OF2Ynp3nGPH3gxSjMwjO6yk/GgaGaDpbPlYU+KZpCq4LuxAGB1xIu3CgB0egNFMz4BQu4W98VpFM0oapsAoLqu+fNNR9Ztc7B19vvqH2dQAoKvBEdRNHMtNIaiGQtr9y37XLHT1duPAJW618LanaKZjVYuuw9dIOBb9+IRIJMrzbc7UjSzk/FYb3mSohm/Gw8omsFDAwD5JXJzi2MUzeyz90ak5WFPrqrYn8OBagj+FDRLg1McPJFDuQq0YzAwCs9V8LgSjsbOAsxvQCdrPf5PcD+Rohlzi2M3w+NyCiuGtXzyMRYJRHNikZNHEEUzSRmFKK6x9RXaBTkAgMrqBl4sWpIDZFGl7kWZA0O6EOGMBZGDLftPKxvbcfZpegFFM+cuC/DR8RwbUZMzZ/R52dSxeS/LE+Fgo5WL+XbH6rpmxEsLypFj5KCvf8hsi72Nky+eMAAIjZBQNBMVm4548j+HAwB43gF/DIAtd0A+fetWtRoOBreutlOstqs+GNxa1ca6alk7bAxlYeUqIoffCRHGc4/tt47/yi+ZzYvmc9CrGeS+P4oTS7IpmnkXDgKmg94LZQtfPwDkICWrmDvleDaQoplx40R37wBFM+evhHFnoxOyCAd5xXKKZsSSbC7AwzeM+MGte6wFCMEIo3c57bP35i4BMFWjVXXC6AQLK67Xf2ItX3WgkrRPrOXF9eyhHjGCQs0TxX8cNYzlFlVevi76yw7WHymaycwrQ9B8DuQv2DMeI5lJnBBWXdf8jhzUvmzDrd18bscl52pHRomWyEG7qpuMAAB6cGtHF+ojTpRyZ+U1jYQDPB+8JC0qNp1w4Op96/NNR2RyJbcdcLj0xWY7rkzTHBDEZt+W39m84LXNvibOFFmyUEecKJ1SbvvBswiYz0FuUSVFM7xT2f6q5x05AABFbZObz23ilLxYpOmfE0xjk3Km4rtMrswprKBoJk1ayn0j1Adj0Z1INt52ds1evwCQnFlEODh00o9syutwZS7GQc/wm98fbTHZeobf8KQs5xHDPSYe8zl4oWyhaOa+OI0rSiZXLs4BAEyFDq+r4dxVN358Qu5k7niRrHqHDXvH4nWNflDf1MHFCERsyG5XdStqmyiaeRCXyZ0tq6gjfhCXnEtEEUz4w2TCwdnLAopm9KNjZHahDv8+ILhWzevVp7pNtjbNawIz2eFleAAwbpzYbn2OohnEDw2PUDTz/c0HZLlWp6do5pj7dTICAD7XhFwO6hrYwBL5eM6dttHK5eiZQO6qffbe862DAGT6UfzPU6cPOeDlBd8cOr9umwMAoD4nzgdxJWNyjH6AxUr4w2QCME5M7plO3vBOTkjNp2gmLPIpASzUWZADADDzG/nUU/upp477b+Y3spAsMv7nr496+IY9jMt8VlFbVlkXnZCFSaer9y2C2bT3lNlW++C7saQ+wDeMiEkdGNKpe/ovBUZgwkfu5LEx4xeb7ehdTiHCeKwPAACTS8zZWzu6LgVGoOPjYb91Lz5QEIPpprKxHYvHwmcKwsHfvzkhEqeO6A3NbZ3OnjcomiGSva6Go2v29A2qe/p9AoQbLJ2JH0xFub12F80tjqVLS0f0hvqmDpvj/0YAcjA2btx6wI2iGYcz18SS7JLnNTK5MiEln1yKxBSLcSAs+XWN7+SaK6//MP2/5grbF5Ys/cGIG39JKDzgcKmvf4hsXFCq+NtOJ5zF7E2r02NZgIMbrVxKntdw/QAAEtN+MdtqjwAUpdMb9n/HHnxse+0uBoU9Jn7w44MkMoWdoLDHuBD9oEhWvW6bA8FwD/6wVr/rn+fJ1Jd7XErLWX1IbtrSribpBpacj5+y1165oh636NUMunjdJBKwE5ecS4yAncU4YFPawtlqYK0/+7jMX2dXnzhRigVtQkp+ZXWDyYUvmzp0nNJUq9OnSUsjYlKfVdQaJybHjRMyuZJbdqKQuoY2UloDgGFsPF1aejcqKf6nPADo7h2QyZUkEKvUvY/ifxaIJHHJuY0ts2U9cqAZGB7RGzLzyoTRKbx6GwCGtfrU7BKePtx7WN2tSUz7JSo2HasEzEd5CmsGhqUF5cLolIycZ9xTSAyyBAcA0D8K0ga29fMrLSLko+wQDv5X2mt1+r/uPP71tzO53/LFLs3B8mV9XMh35GDcOLHDxj1QEIOfvAQiyfrd7OcKvGzeyhQrHMypD97KdvgJiIT7wy7f19T/N8XTb5eDtzL3QmB5TaNMrqya/j64EGbJ8RUOljTRewescPDeTbzkBiscLGmi9w5Y4eC9m3jJDf4D8CiVOR9LGnYAAAAASUVORK5CYII=;" vertex="1" parent="1">
          <mxGeometry x="301.92" y="492" width="101" height="20.35" as="geometry" />
        </mxCell>
        <mxCell id="TvpjpGgyVsRweBhkjj-o-281" value="" style="shape=image;verticalLabelPosition=bottom;labelBackgroundColor=default;verticalAlign=top;aspect=fixed;imageAspect=0;image=data:image/png,iVBORw0KGgoAAAANSUhEUgAAAIEAAAAaCAIAAAAfY6iHAAAI20lEQVRoBe1Ya1BTSRb2x9b82n/+nH9rXWurZoZya9ndu+r4mhF1BF87wl1RGERREFFBQXBdZARxQEUiDoYIKkQEgjA8B8JjeEoEQhAI8oZIeIVXQggEdOosl0M1l0t4uK7lWkOqK9W3++vT556vz+lz7ipY+X1oC6z60Aqs7A8rHHz4Q7DCwf83B5NvoKYLMpQQKWNbhhLquuH1r8tVWizJvuh/z/50gK2z35XgyLxi+XJX/sZwpv3guQoOx8BngbDWn98+CwQ7MVR1Lmanzq6+TXtPUTTDa9EJWbhMpzcIRJKyyrrFpMybU/f0C0SSuoa2eTMf9wCfgyEDuCby7T6fibX+4PET6MZNv/wx9+sUzQQKYowTkwDQ2dVX+Exxwe9u1JMMXKDu1lA0ExohMb1+gdEKxUuKZhJS8heY/1iH53Ag64D1IcsiAFnZcBsqX5l48y/3uGzZ52piYnooNbvEP+QRRTO2zn4CkUQgkhjGZsg0jI2LE6UuXjePuF7NKazQ6vQCkaS0vAYAYpNyLvrfo2jmxPkggUhyJzIRAIwTkwKRJLeokruXvKZRIJL09A3iYFcv6z0nLwS7+dwOjZh1o4JSBW5dUKr4zi3guMcP0QlZI3oDV9SoYYzok18iR33KKmbdt6dvUBid4ng20NnzRkOzqqFZJRBJXqn7iJDBYZ1Ykn3aJ8TW2e9aaIxWpydTpDOHg93CtyAAadh/n4ia7ey2vWC21b5XM2OF2Ynp3nGPH3gxSjMwjO6yk/GgaGaDpbPlYU+KZpCq4LuxAGB1xIu3CgB0egNFMz4BQu4W98VpFM0oapsAoLqu+fNNR9Ztc7B19vvqH2dQAoKvBEdRNHMtNIaiGQtr9y37XLHT1duPAJW618LanaKZjVYuuw9dIOBb9+IRIJMrzbc7UjSzk/FYb3mSohm/Gw8omsFDAwD5JXJzi2MUzeyz90ak5WFPrqrYn8OBagj+FDRLg1McPJFDuQq0YzAwCs9V8LgSjsbOAsxvQCdrPf5PcD+Rohlzi2M3w+NyCiuGtXzyMRYJRHNikZNHEEUzSRmFKK6x9RXaBTkAgMrqBl4sWpIDZFGl7kWZA0O6EOGMBZGDLftPKxvbcfZpegFFM+cuC/DR8RwbUZMzZ/R52dSxeS/LE+Fgo5WL+XbH6rpmxEsLypFj5KCvf8hsi72Nky+eMAAIjZBQNBMVm4548j+HAwB43gF/DIAtd0A+fetWtRoOBreutlOstqs+GNxa1ca6alk7bAxlYeUqIoffCRHGc4/tt47/yi+ZzYvmc9CrGeS+P4oTS7IpmnkXDgKmg94LZQtfPwDkICWrmDvleDaQoplx40R37wBFM+evhHFnoxOyCAd5xXKKZsSSbC7AwzeM+MGte6wFCMEIo3c57bP35i4BMFWjVXXC6AQLK67Xf2ItX3WgkrRPrOXF9eyhHjGCQs0TxX8cNYzlFlVevi76yw7WHymaycwrQ9B8DuQv2DMeI5lJnBBWXdf8jhzUvmzDrd18bscl52pHRomWyEG7qpuMAAB6cGtHF+ojTpRyZ+U1jYQDPB+8JC0qNp1w4Op96/NNR2RyJbcdcLj0xWY7rkzTHBDEZt+W39m84LXNvibOFFmyUEecKJ1SbvvBswiYz0FuUSVFM7xT2f6q5x05AABFbZObz23ilLxYpOmfE0xjk3Km4rtMrswprKBoJk1ayn0j1Adj0Z1INt52ds1evwCQnFlEODh00o9syutwZS7GQc/wm98fbTHZeobf8KQs5xHDPSYe8zl4oWyhaOa+OI0rSiZXLs4BAEyFDq+r4dxVN358Qu5k7niRrHqHDXvH4nWNflDf1MHFCERsyG5XdStqmyiaeRCXyZ0tq6gjfhCXnEtEEUz4w2TCwdnLAopm9KNjZHahDv8+ILhWzevVp7pNtjbNawIz2eFleAAwbpzYbn2OohnEDw2PUDTz/c0HZLlWp6do5pj7dTICAD7XhFwO6hrYwBL5eM6dttHK5eiZQO6qffbe862DAGT6UfzPU6cPOeDlBd8cOr9umwMAoD4nzgdxJWNyjH6AxUr4w2QCME5M7plO3vBOTkjNp2gmLPIpASzUWZADADDzG/nUU/upp477b+Y3spAsMv7nr496+IY9jMt8VlFbVlkXnZCFSaer9y2C2bT3lNlW++C7saQ+wDeMiEkdGNKpe/ovBUZgwkfu5LEx4xeb7ehdTiHCeKwPAACTS8zZWzu6LgVGoOPjYb91Lz5QEIPpprKxHYvHwmcKwsHfvzkhEqeO6A3NbZ3OnjcomiGSva6Go2v29A2qe/p9AoQbLJ2JH0xFub12F80tjqVLS0f0hvqmDpvj/0YAcjA2btx6wI2iGYcz18SS7JLnNTK5MiEln1yKxBSLcSAs+XWN7+SaK6//MP2/5grbF5Ys/cGIG39JKDzgcKmvf4hsXFCq+NtOJ5zF7E2r02NZgIMbrVxKntdw/QAAEtN+MdtqjwAUpdMb9n/HHnxse+0uBoU9Jn7w44MkMoWdoLDHuBD9oEhWvW6bA8FwD/6wVr/rn+fJ1Jd7XErLWX1IbtrSribpBpacj5+y1165oh636NUMunjdJBKwE5ecS4yAncU4YFPawtlqYK0/+7jMX2dXnzhRigVtQkp+ZXWDyYUvmzp0nNJUq9OnSUsjYlKfVdQaJybHjRMyuZJbdqKQuoY2UloDgGFsPF1aejcqKf6nPADo7h2QyZUkEKvUvY/ifxaIJHHJuY0ts2U9cqAZGB7RGzLzyoTRKbx6GwCGtfrU7BKePtx7WN2tSUz7JSo2HasEzEd5CmsGhqUF5cLolIycZ9xTSAyyBAcA0D8K0ga29fMrLSLko+wQDv5X2mt1+r/uPP71tzO53/LFLs3B8mV9XMh35GDcOLHDxj1QEIOfvAQiyfrd7OcKvGzeyhQrHMypD97KdvgJiIT7wy7f19T/N8XTb5eDtzL3QmB5TaNMrqya/j64EGbJ8RUOljTRewescPDeTbzkBiscLGmi9w5Y4eC9m3jJDf4D8CiVOR9LGnYAAAAASUVORK5CYII=;" vertex="1" parent="1">
          <mxGeometry x="300.92" y="556" width="101" height="20.35" as="geometry" />
        </mxCell>
        <mxCell id="TvpjpGgyVsRweBhkjj-o-282" value="" style="shape=image;verticalLabelPosition=bottom;labelBackgroundColor=default;verticalAlign=top;aspect=fixed;imageAspect=0;image=data:image/png,iVBORw0KGgoAAAANSUhEUgAAAIEAAAAaCAIAAAAfY6iHAAAI20lEQVRoBe1Ya1BTSRb2x9b82n/+nH9rXWurZoZya9ndu+r4mhF1BF87wl1RGERREFFBQXBdZARxQEUiDoYIKkQEgjA8B8JjeEoEQhAI8oZIeIVXQggEdOosl0M1l0t4uK7lWkOqK9W3++vT556vz+lz7ipY+X1oC6z60Aqs7A8rHHz4Q7DCwf83B5NvoKYLMpQQKWNbhhLquuH1r8tVWizJvuh/z/50gK2z35XgyLxi+XJX/sZwpv3guQoOx8BngbDWn98+CwQ7MVR1Lmanzq6+TXtPUTTDa9EJWbhMpzcIRJKyyrrFpMybU/f0C0SSuoa2eTMf9wCfgyEDuCby7T6fibX+4PET6MZNv/wx9+sUzQQKYowTkwDQ2dVX+Exxwe9u1JMMXKDu1lA0ExohMb1+gdEKxUuKZhJS8heY/1iH53Ag64D1IcsiAFnZcBsqX5l48y/3uGzZ52piYnooNbvEP+QRRTO2zn4CkUQgkhjGZsg0jI2LE6UuXjePuF7NKazQ6vQCkaS0vAYAYpNyLvrfo2jmxPkggUhyJzIRAIwTkwKRJLeokruXvKZRIJL09A3iYFcv6z0nLwS7+dwOjZh1o4JSBW5dUKr4zi3guMcP0QlZI3oDV9SoYYzok18iR33KKmbdt6dvUBid4ng20NnzRkOzqqFZJRBJXqn7iJDBYZ1Ykn3aJ8TW2e9aaIxWpydTpDOHg93CtyAAadh/n4ia7ey2vWC21b5XM2OF2Ynp3nGPH3gxSjMwjO6yk/GgaGaDpbPlYU+KZpCq4LuxAGB1xIu3CgB0egNFMz4BQu4W98VpFM0oapsAoLqu+fNNR9Ztc7B19vvqH2dQAoKvBEdRNHMtNIaiGQtr9y37XLHT1duPAJW618LanaKZjVYuuw9dIOBb9+IRIJMrzbc7UjSzk/FYb3mSohm/Gw8omsFDAwD5JXJzi2MUzeyz90ak5WFPrqrYn8OBagj+FDRLg1McPJFDuQq0YzAwCs9V8LgSjsbOAsxvQCdrPf5PcD+Rohlzi2M3w+NyCiuGtXzyMRYJRHNikZNHEEUzSRmFKK6x9RXaBTkAgMrqBl4sWpIDZFGl7kWZA0O6EOGMBZGDLftPKxvbcfZpegFFM+cuC/DR8RwbUZMzZ/R52dSxeS/LE+Fgo5WL+XbH6rpmxEsLypFj5KCvf8hsi72Nky+eMAAIjZBQNBMVm4548j+HAwB43gF/DIAtd0A+fetWtRoOBreutlOstqs+GNxa1ca6alk7bAxlYeUqIoffCRHGc4/tt47/yi+ZzYvmc9CrGeS+P4oTS7IpmnkXDgKmg94LZQtfPwDkICWrmDvleDaQoplx40R37wBFM+evhHFnoxOyCAd5xXKKZsSSbC7AwzeM+MGte6wFCMEIo3c57bP35i4BMFWjVXXC6AQLK67Xf2ItX3WgkrRPrOXF9eyhHjGCQs0TxX8cNYzlFlVevi76yw7WHymaycwrQ9B8DuQv2DMeI5lJnBBWXdf8jhzUvmzDrd18bscl52pHRomWyEG7qpuMAAB6cGtHF+ojTpRyZ+U1jYQDPB+8JC0qNp1w4Op96/NNR2RyJbcdcLj0xWY7rkzTHBDEZt+W39m84LXNvibOFFmyUEecKJ1SbvvBswiYz0FuUSVFM7xT2f6q5x05AABFbZObz23ilLxYpOmfE0xjk3Km4rtMrswprKBoJk1ayn0j1Adj0Z1INt52ds1evwCQnFlEODh00o9syutwZS7GQc/wm98fbTHZeobf8KQs5xHDPSYe8zl4oWyhaOa+OI0rSiZXLs4BAEyFDq+r4dxVN358Qu5k7niRrHqHDXvH4nWNflDf1MHFCERsyG5XdStqmyiaeRCXyZ0tq6gjfhCXnEtEEUz4w2TCwdnLAopm9KNjZHahDv8+ILhWzevVp7pNtjbNawIz2eFleAAwbpzYbn2OohnEDw2PUDTz/c0HZLlWp6do5pj7dTICAD7XhFwO6hrYwBL5eM6dttHK5eiZQO6qffbe862DAGT6UfzPU6cPOeDlBd8cOr9umwMAoD4nzgdxJWNyjH6AxUr4w2QCME5M7plO3vBOTkjNp2gmLPIpASzUWZADADDzG/nUU/upp477b+Y3spAsMv7nr496+IY9jMt8VlFbVlkXnZCFSaer9y2C2bT3lNlW++C7saQ+wDeMiEkdGNKpe/ovBUZgwkfu5LEx4xeb7ehdTiHCeKwPAACTS8zZWzu6LgVGoOPjYb91Lz5QEIPpprKxHYvHwmcKwsHfvzkhEqeO6A3NbZ3OnjcomiGSva6Go2v29A2qe/p9AoQbLJ2JH0xFub12F80tjqVLS0f0hvqmDpvj/0YAcjA2btx6wI2iGYcz18SS7JLnNTK5MiEln1yKxBSLcSAs+XWN7+SaK6//MP2/5grbF5Ys/cGIG39JKDzgcKmvf4hsXFCq+NtOJ5zF7E2r02NZgIMbrVxKntdw/QAAEtN+MdtqjwAUpdMb9n/HHnxse+0uBoU9Jn7w44MkMoWdoLDHuBD9oEhWvW6bA8FwD/6wVr/rn+fJ1Jd7XErLWX1IbtrSribpBpacj5+y1165oh636NUMunjdJBKwE5ecS4yAncU4YFPawtlqYK0/+7jMX2dXnzhRigVtQkp+ZXWDyYUvmzp0nNJUq9OnSUsjYlKfVdQaJybHjRMyuZJbdqKQuoY2UloDgGFsPF1aejcqKf6nPADo7h2QyZUkEKvUvY/ifxaIJHHJuY0ts2U9cqAZGB7RGzLzyoTRKbx6GwCGtfrU7BKePtx7WN2tSUz7JSo2HasEzEd5CmsGhqUF5cLolIycZ9xTSAyyBAcA0D8K0ga29fMrLSLko+wQDv5X2mt1+r/uPP71tzO53/LFLs3B8mV9XMh35GDcOLHDxj1QEIOfvAQiyfrd7OcKvGzeyhQrHMypD97KdvgJiIT7wy7f19T/N8XTb5eDtzL3QmB5TaNMrqya/j64EGbJ8RUOljTRewescPDeTbzkBiscLGmi9w5Y4eC9m3jJDf4D8CiVOR9LGnYAAAAASUVORK5CYII=;" vertex="1" parent="1">
          <mxGeometry x="357.92" y="620" width="101" height="20.35" as="geometry" />
        </mxCell>
        <mxCell id="TvpjpGgyVsRweBhkjj-o-283" value="" style="shape=image;verticalLabelPosition=bottom;labelBackgroundColor=default;verticalAlign=top;aspect=fixed;imageAspect=0;image=data:image/png,iVBORw0KGgoAAAANSUhEUgAAAIEAAAAaCAIAAAAfY6iHAAAI20lEQVRoBe1Ya1BTSRb2x9b82n/+nH9rXWurZoZya9ndu+r4mhF1BF87wl1RGERREFFBQXBdZARxQEUiDoYIKkQEgjA8B8JjeEoEQhAI8oZIeIVXQggEdOosl0M1l0t4uK7lWkOqK9W3++vT556vz+lz7ipY+X1oC6z60Aqs7A8rHHz4Q7DCwf83B5NvoKYLMpQQKWNbhhLquuH1r8tVWizJvuh/z/50gK2z35XgyLxi+XJX/sZwpv3guQoOx8BngbDWn98+CwQ7MVR1Lmanzq6+TXtPUTTDa9EJWbhMpzcIRJKyyrrFpMybU/f0C0SSuoa2eTMf9wCfgyEDuCby7T6fibX+4PET6MZNv/wx9+sUzQQKYowTkwDQ2dVX+Exxwe9u1JMMXKDu1lA0ExohMb1+gdEKxUuKZhJS8heY/1iH53Ag64D1IcsiAFnZcBsqX5l48y/3uGzZ52piYnooNbvEP+QRRTO2zn4CkUQgkhjGZsg0jI2LE6UuXjePuF7NKazQ6vQCkaS0vAYAYpNyLvrfo2jmxPkggUhyJzIRAIwTkwKRJLeokruXvKZRIJL09A3iYFcv6z0nLwS7+dwOjZh1o4JSBW5dUKr4zi3guMcP0QlZI3oDV9SoYYzok18iR33KKmbdt6dvUBid4ng20NnzRkOzqqFZJRBJXqn7iJDBYZ1Ykn3aJ8TW2e9aaIxWpydTpDOHg93CtyAAadh/n4ia7ey2vWC21b5XM2OF2Ynp3nGPH3gxSjMwjO6yk/GgaGaDpbPlYU+KZpCq4LuxAGB1xIu3CgB0egNFMz4BQu4W98VpFM0oapsAoLqu+fNNR9Ztc7B19vvqH2dQAoKvBEdRNHMtNIaiGQtr9y37XLHT1duPAJW618LanaKZjVYuuw9dIOBb9+IRIJMrzbc7UjSzk/FYb3mSohm/Gw8omsFDAwD5JXJzi2MUzeyz90ak5WFPrqrYn8OBagj+FDRLg1McPJFDuQq0YzAwCs9V8LgSjsbOAsxvQCdrPf5PcD+Rohlzi2M3w+NyCiuGtXzyMRYJRHNikZNHEEUzSRmFKK6x9RXaBTkAgMrqBl4sWpIDZFGl7kWZA0O6EOGMBZGDLftPKxvbcfZpegFFM+cuC/DR8RwbUZMzZ/R52dSxeS/LE+Fgo5WL+XbH6rpmxEsLypFj5KCvf8hsi72Nky+eMAAIjZBQNBMVm4548j+HAwB43gF/DIAtd0A+fetWtRoOBreutlOstqs+GNxa1ca6alk7bAxlYeUqIoffCRHGc4/tt47/yi+ZzYvmc9CrGeS+P4oTS7IpmnkXDgKmg94LZQtfPwDkICWrmDvleDaQoplx40R37wBFM+evhHFnoxOyCAd5xXKKZsSSbC7AwzeM+MGte6wFCMEIo3c57bP35i4BMFWjVXXC6AQLK67Xf2ItX3WgkrRPrOXF9eyhHjGCQs0TxX8cNYzlFlVevi76yw7WHymaycwrQ9B8DuQv2DMeI5lJnBBWXdf8jhzUvmzDrd18bscl52pHRomWyEG7qpuMAAB6cGtHF+ojTpRyZ+U1jYQDPB+8JC0qNp1w4Op96/NNR2RyJbcdcLj0xWY7rkzTHBDEZt+W39m84LXNvibOFFmyUEecKJ1SbvvBswiYz0FuUSVFM7xT2f6q5x05AABFbZObz23ilLxYpOmfE0xjk3Km4rtMrswprKBoJk1ayn0j1Adj0Z1INt52ds1evwCQnFlEODh00o9syutwZS7GQc/wm98fbTHZeobf8KQs5xHDPSYe8zl4oWyhaOa+OI0rSiZXLs4BAEyFDq+r4dxVN358Qu5k7niRrHqHDXvH4nWNflDf1MHFCERsyG5XdStqmyiaeRCXyZ0tq6gjfhCXnEtEEUz4w2TCwdnLAopm9KNjZHahDv8+ILhWzevVp7pNtjbNawIz2eFleAAwbpzYbn2OohnEDw2PUDTz/c0HZLlWp6do5pj7dTICAD7XhFwO6hrYwBL5eM6dttHK5eiZQO6qffbe862DAGT6UfzPU6cPOeDlBd8cOr9umwMAoD4nzgdxJWNyjH6AxUr4w2QCME5M7plO3vBOTkjNp2gmLPIpASzUWZADADDzG/nUU/upp477b+Y3spAsMv7nr496+IY9jMt8VlFbVlkXnZCFSaer9y2C2bT3lNlW++C7saQ+wDeMiEkdGNKpe/ovBUZgwkfu5LEx4xeb7ehdTiHCeKwPAACTS8zZWzu6LgVGoOPjYb91Lz5QEIPpprKxHYvHwmcKwsHfvzkhEqeO6A3NbZ3OnjcomiGSva6Go2v29A2qe/p9AoQbLJ2JH0xFub12F80tjqVLS0f0hvqmDpvj/0YAcjA2btx6wI2iGYcz18SS7JLnNTK5MiEln1yKxBSLcSAs+XWN7+SaK6//MP2/5grbF5Ys/cGIG39JKDzgcKmvf4hsXFCq+NtOJ5zF7E2r02NZgIMbrVxKntdw/QAAEtN+MdtqjwAUpdMb9n/HHnxse+0uBoU9Jn7w44MkMoWdoLDHuBD9oEhWvW6bA8FwD/6wVr/rn+fJ1Jd7XErLWX1IbtrSribpBpacj5+y1165oh636NUMunjdJBKwE5ecS4yAncU4YFPawtlqYK0/+7jMX2dXnzhRigVtQkp+ZXWDyYUvmzp0nNJUq9OnSUsjYlKfVdQaJybHjRMyuZJbdqKQuoY2UloDgGFsPF1aejcqKf6nPADo7h2QyZUkEKvUvY/ifxaIJHHJuY0ts2U9cqAZGB7RGzLzyoTRKbx6GwCGtfrU7BKePtx7WN2tSUz7JSo2HasEzEd5CmsGhqUF5cLolIycZ9xTSAyyBAcA0D8K0ga29fMrLSLko+wQDv5X2mt1+r/uPP71tzO53/LFLs3B8mV9XMh35GDcOLHDxj1QEIOfvAQiyfrd7OcKvGzeyhQrHMypD97KdvgJiIT7wy7f19T/N8XTb5eDtzL3QmB5TaNMrqya/j64EGbJ8RUOljTRewescPDeTbzkBiscLGmi9w5Y4eC9m3jJDf4D8CiVOR9LGnYAAAAASUVORK5CYII=;" vertex="1" parent="1">
          <mxGeometry x="331" y="876" width="101" height="20.35" as="geometry" />
        </mxCell>
        <mxCell id="TvpjpGgyVsRweBhkjj-o-284" value="" style="shape=image;verticalLabelPosition=bottom;labelBackgroundColor=default;verticalAlign=top;aspect=fixed;imageAspect=0;image=data:image/png,iVBORw0KGgoAAAANSUhEUgAAAIEAAAAaCAIAAAAfY6iHAAAI20lEQVRoBe1Ya1BTSRb2x9b82n/+nH9rXWurZoZya9ndu+r4mhF1BF87wl1RGERREFFBQXBdZARxQEUiDoYIKkQEgjA8B8JjeEoEQhAI8oZIeIVXQggEdOosl0M1l0t4uK7lWkOqK9W3++vT556vz+lz7ipY+X1oC6z60Aqs7A8rHHz4Q7DCwf83B5NvoKYLMpQQKWNbhhLquuH1r8tVWizJvuh/z/50gK2z35XgyLxi+XJX/sZwpv3guQoOx8BngbDWn98+CwQ7MVR1Lmanzq6+TXtPUTTDa9EJWbhMpzcIRJKyyrrFpMybU/f0C0SSuoa2eTMf9wCfgyEDuCby7T6fibX+4PET6MZNv/wx9+sUzQQKYowTkwDQ2dVX+Exxwe9u1JMMXKDu1lA0ExohMb1+gdEKxUuKZhJS8heY/1iH53Ag64D1IcsiAFnZcBsqX5l48y/3uGzZ52piYnooNbvEP+QRRTO2zn4CkUQgkhjGZsg0jI2LE6UuXjePuF7NKazQ6vQCkaS0vAYAYpNyLvrfo2jmxPkggUhyJzIRAIwTkwKRJLeokruXvKZRIJL09A3iYFcv6z0nLwS7+dwOjZh1o4JSBW5dUKr4zi3guMcP0QlZI3oDV9SoYYzok18iR33KKmbdt6dvUBid4ng20NnzRkOzqqFZJRBJXqn7iJDBYZ1Ykn3aJ8TW2e9aaIxWpydTpDOHg93CtyAAadh/n4ia7ey2vWC21b5XM2OF2Ynp3nGPH3gxSjMwjO6yk/GgaGaDpbPlYU+KZpCq4LuxAGB1xIu3CgB0egNFMz4BQu4W98VpFM0oapsAoLqu+fNNR9Ztc7B19vvqH2dQAoKvBEdRNHMtNIaiGQtr9y37XLHT1duPAJW618LanaKZjVYuuw9dIOBb9+IRIJMrzbc7UjSzk/FYb3mSohm/Gw8omsFDAwD5JXJzi2MUzeyz90ak5WFPrqrYn8OBagj+FDRLg1McPJFDuQq0YzAwCs9V8LgSjsbOAsxvQCdrPf5PcD+Rohlzi2M3w+NyCiuGtXzyMRYJRHNikZNHEEUzSRmFKK6x9RXaBTkAgMrqBl4sWpIDZFGl7kWZA0O6EOGMBZGDLftPKxvbcfZpegFFM+cuC/DR8RwbUZMzZ/R52dSxeS/LE+Fgo5WL+XbH6rpmxEsLypFj5KCvf8hsi72Nky+eMAAIjZBQNBMVm4548j+HAwB43gF/DIAtd0A+fetWtRoOBreutlOstqs+GNxa1ca6alk7bAxlYeUqIoffCRHGc4/tt47/yi+ZzYvmc9CrGeS+P4oTS7IpmnkXDgKmg94LZQtfPwDkICWrmDvleDaQoplx40R37wBFM+evhHFnoxOyCAd5xXKKZsSSbC7AwzeM+MGte6wFCMEIo3c57bP35i4BMFWjVXXC6AQLK67Xf2ItX3WgkrRPrOXF9eyhHjGCQs0TxX8cNYzlFlVevi76yw7WHymaycwrQ9B8DuQv2DMeI5lJnBBWXdf8jhzUvmzDrd18bscl52pHRomWyEG7qpuMAAB6cGtHF+ojTpRyZ+U1jYQDPB+8JC0qNp1w4Op96/NNR2RyJbcdcLj0xWY7rkzTHBDEZt+W39m84LXNvibOFFmyUEecKJ1SbvvBswiYz0FuUSVFM7xT2f6q5x05AABFbZObz23ilLxYpOmfE0xjk3Km4rtMrswprKBoJk1ayn0j1Adj0Z1INt52ds1evwCQnFlEODh00o9syutwZS7GQc/wm98fbTHZeobf8KQs5xHDPSYe8zl4oWyhaOa+OI0rSiZXLs4BAEyFDq+r4dxVN358Qu5k7niRrHqHDXvH4nWNflDf1MHFCERsyG5XdStqmyiaeRCXyZ0tq6gjfhCXnEtEEUz4w2TCwdnLAopm9KNjZHahDv8+ILhWzevVp7pNtjbNawIz2eFleAAwbpzYbn2OohnEDw2PUDTz/c0HZLlWp6do5pj7dTICAD7XhFwO6hrYwBL5eM6dttHK5eiZQO6qffbe862DAGT6UfzPU6cPOeDlBd8cOr9umwMAoD4nzgdxJWNyjH6AxUr4w2QCME5M7plO3vBOTkjNp2gmLPIpASzUWZADADDzG/nUU/upp477b+Y3spAsMv7nr496+IY9jMt8VlFbVlkXnZCFSaer9y2C2bT3lNlW++C7saQ+wDeMiEkdGNKpe/ovBUZgwkfu5LEx4xeb7ehdTiHCeKwPAACTS8zZWzu6LgVGoOPjYb91Lz5QEIPpprKxHYvHwmcKwsHfvzkhEqeO6A3NbZ3OnjcomiGSva6Go2v29A2qe/p9AoQbLJ2JH0xFub12F80tjqVLS0f0hvqmDpvj/0YAcjA2btx6wI2iGYcz18SS7JLnNTK5MiEln1yKxBSLcSAs+XWN7+SaK6//MP2/5grbF5Ys/cGIG39JKDzgcKmvf4hsXFCq+NtOJ5zF7E2r02NZgIMbrVxKntdw/QAAEtN+MdtqjwAUpdMb9n/HHnxse+0uBoU9Jn7w44MkMoWdoLDHuBD9oEhWvW6bA8FwD/6wVr/rn+fJ1Jd7XErLWX1IbtrSribpBpacj5+y1165oh636NUMunjdJBKwE5ecS4yAncU4YFPawtlqYK0/+7jMX2dXnzhRigVtQkp+ZXWDyYUvmzp0nNJUq9OnSUsjYlKfVdQaJybHjRMyuZJbdqKQuoY2UloDgGFsPF1aejcqKf6nPADo7h2QyZUkEKvUvY/ifxaIJHHJuY0ts2U9cqAZGB7RGzLzyoTRKbx6GwCGtfrU7BKePtx7WN2tSUz7JSo2HasEzEd5CmsGhqUF5cLolIycZ9xTSAyyBAcA0D8K0ga29fMrLSLko+wQDv5X2mt1+r/uPP71tzO53/LFLs3B8mV9XMh35GDcOLHDxj1QEIOfvAQiyfrd7OcKvGzeyhQrHMypD97KdvgJiIT7wy7f19T/N8XTb5eDtzL3QmB5TaNMrqya/j64EGbJ8RUOljTRewescPDeTbzkBiscLGmi9w5Y4eC9m3jJDf4D8CiVOR9LGnYAAAAASUVORK5CYII=;" vertex="1" parent="1">
          <mxGeometry x="284" y="938" width="101" height="20.35" as="geometry" />
        </mxCell>
        <mxCell id="TvpjpGgyVsRweBhkjj-o-285" value="" style="shape=image;verticalLabelPosition=bottom;labelBackgroundColor=default;verticalAlign=top;aspect=fixed;imageAspect=0;image=data:image/png,iVBORw0KGgoAAAANSUhEUgAAAIEAAAAaCAIAAAAfY6iHAAAI20lEQVRoBe1Ya1BTSRb2x9b82n/+nH9rXWurZoZya9ndu+r4mhF1BF87wl1RGERREFFBQXBdZARxQEUiDoYIKkQEgjA8B8JjeEoEQhAI8oZIeIVXQggEdOosl0M1l0t4uK7lWkOqK9W3++vT556vz+lz7ipY+X1oC6z60Aqs7A8rHHz4Q7DCwf83B5NvoKYLMpQQKWNbhhLquuH1r8tVWizJvuh/z/50gK2z35XgyLxi+XJX/sZwpv3guQoOx8BngbDWn98+CwQ7MVR1Lmanzq6+TXtPUTTDa9EJWbhMpzcIRJKyyrrFpMybU/f0C0SSuoa2eTMf9wCfgyEDuCby7T6fibX+4PET6MZNv/wx9+sUzQQKYowTkwDQ2dVX+Exxwe9u1JMMXKDu1lA0ExohMb1+gdEKxUuKZhJS8heY/1iH53Ag64D1IcsiAFnZcBsqX5l48y/3uGzZ52piYnooNbvEP+QRRTO2zn4CkUQgkhjGZsg0jI2LE6UuXjePuF7NKazQ6vQCkaS0vAYAYpNyLvrfo2jmxPkggUhyJzIRAIwTkwKRJLeokruXvKZRIJL09A3iYFcv6z0nLwS7+dwOjZh1o4JSBW5dUKr4zi3guMcP0QlZI3oDV9SoYYzok18iR33KKmbdt6dvUBid4ng20NnzRkOzqqFZJRBJXqn7iJDBYZ1Ykn3aJ8TW2e9aaIxWpydTpDOHg93CtyAAadh/n4ia7ey2vWC21b5XM2OF2Ynp3nGPH3gxSjMwjO6yk/GgaGaDpbPlYU+KZpCq4LuxAGB1xIu3CgB0egNFMz4BQu4W98VpFM0oapsAoLqu+fNNR9Ztc7B19vvqH2dQAoKvBEdRNHMtNIaiGQtr9y37XLHT1duPAJW618LanaKZjVYuuw9dIOBb9+IRIJMrzbc7UjSzk/FYb3mSohm/Gw8omsFDAwD5JXJzi2MUzeyz90ak5WFPrqrYn8OBagj+FDRLg1McPJFDuQq0YzAwCs9V8LgSjsbOAsxvQCdrPf5PcD+Rohlzi2M3w+NyCiuGtXzyMRYJRHNikZNHEEUzSRmFKK6x9RXaBTkAgMrqBl4sWpIDZFGl7kWZA0O6EOGMBZGDLftPKxvbcfZpegFFM+cuC/DR8RwbUZMzZ/R52dSxeS/LE+Fgo5WL+XbH6rpmxEsLypFj5KCvf8hsi72Nky+eMAAIjZBQNBMVm4548j+HAwB43gF/DIAtd0A+fetWtRoOBreutlOstqs+GNxa1ca6alk7bAxlYeUqIoffCRHGc4/tt47/yi+ZzYvmc9CrGeS+P4oTS7IpmnkXDgKmg94LZQtfPwDkICWrmDvleDaQoplx40R37wBFM+evhHFnoxOyCAd5xXKKZsSSbC7AwzeM+MGte6wFCMEIo3c57bP35i4BMFWjVXXC6AQLK67Xf2ItX3WgkrRPrOXF9eyhHjGCQs0TxX8cNYzlFlVevi76yw7WHymaycwrQ9B8DuQv2DMeI5lJnBBWXdf8jhzUvmzDrd18bscl52pHRomWyEG7qpuMAAB6cGtHF+ojTpRyZ+U1jYQDPB+8JC0qNp1w4Op96/NNR2RyJbcdcLj0xWY7rkzTHBDEZt+W39m84LXNvibOFFmyUEecKJ1SbvvBswiYz0FuUSVFM7xT2f6q5x05AABFbZObz23ilLxYpOmfE0xjk3Km4rtMrswprKBoJk1ayn0j1Adj0Z1INt52ds1evwCQnFlEODh00o9syutwZS7GQc/wm98fbTHZeobf8KQs5xHDPSYe8zl4oWyhaOa+OI0rSiZXLs4BAEyFDq+r4dxVN358Qu5k7niRrHqHDXvH4nWNflDf1MHFCERsyG5XdStqmyiaeRCXyZ0tq6gjfhCXnEtEEUz4w2TCwdnLAopm9KNjZHahDv8+ILhWzevVp7pNtjbNawIz2eFleAAwbpzYbn2OohnEDw2PUDTz/c0HZLlWp6do5pj7dTICAD7XhFwO6hrYwBL5eM6dttHK5eiZQO6qffbe862DAGT6UfzPU6cPOeDlBd8cOr9umwMAoD4nzgdxJWNyjH6AxUr4w2QCME5M7plO3vBOTkjNp2gmLPIpASzUWZADADDzG/nUU/upp477b+Y3spAsMv7nr496+IY9jMt8VlFbVlkXnZCFSaer9y2C2bT3lNlW++C7saQ+wDeMiEkdGNKpe/ovBUZgwkfu5LEx4xeb7ehdTiHCeKwPAACTS8zZWzu6LgVGoOPjYb91Lz5QEIPpprKxHYvHwmcKwsHfvzkhEqeO6A3NbZ3OnjcomiGSva6Go2v29A2qe/p9AoQbLJ2JH0xFub12F80tjqVLS0f0hvqmDpvj/0YAcjA2btx6wI2iGYcz18SS7JLnNTK5MiEln1yKxBSLcSAs+XWN7+SaK6//MP2/5grbF5Ys/cGIG39JKDzgcKmvf4hsXFCq+NtOJ5zF7E2r02NZgIMbrVxKntdw/QAAEtN+MdtqjwAUpdMb9n/HHnxse+0uBoU9Jn7w44MkMoWdoLDHuBD9oEhWvW6bA8FwD/6wVr/rn+fJ1Jd7XErLWX1IbtrSribpBpacj5+y1165oh636NUMunjdJBKwE5ecS4yAncU4YFPawtlqYK0/+7jMX2dXnzhRigVtQkp+ZXWDyYUvmzp0nNJUq9OnSUsjYlKfVdQaJybHjRMyuZJbdqKQuoY2UloDgGFsPF1aejcqKf6nPADo7h2QyZUkEKvUvY/ifxaIJHHJuY0ts2U9cqAZGB7RGzLzyoTRKbx6GwCGtfrU7BKePtx7WN2tSUz7JSo2HasEzEd5CmsGhqUF5cLolIycZ9xTSAyyBAcA0D8K0ga29fMrLSLko+wQDv5X2mt1+r/uPP71tzO53/LFLs3B8mV9XMh35GDcOLHDxj1QEIOfvAQiyfrd7OcKvGzeyhQrHMypD97KdvgJiIT7wy7f19T/N8XTb5eDtzL3QmB5TaNMrqya/j64EGbJ8RUOljTRewescPDeTbzkBiscLGmi9w5Y4eC9m3jJDf4D8CiVOR9LGnYAAAAASUVORK5CYII=;" vertex="1" parent="1">
          <mxGeometry x="285" y="995" width="101" height="20.35" as="geometry" />
        </mxCell>
        <mxCell id="TvpjpGgyVsRweBhkjj-o-286" value="" style="shape=image;verticalLabelPosition=bottom;labelBackgroundColor=default;verticalAlign=top;aspect=fixed;imageAspect=0;image=data:image/png,iVBORw0KGgoAAAANSUhEUgAAAIEAAAAaCAIAAAAfY6iHAAAI20lEQVRoBe1Ya1BTSRb2x9b82n/+nH9rXWurZoZya9ndu+r4mhF1BF87wl1RGERREFFBQXBdZARxQEUiDoYIKkQEgjA8B8JjeEoEQhAI8oZIeIVXQggEdOosl0M1l0t4uK7lWkOqK9W3++vT556vz+lz7ipY+X1oC6z60Aqs7A8rHHz4Q7DCwf83B5NvoKYLMpQQKWNbhhLquuH1r8tVWizJvuh/z/50gK2z35XgyLxi+XJX/sZwpv3guQoOx8BngbDWn98+CwQ7MVR1Lmanzq6+TXtPUTTDa9EJWbhMpzcIRJKyyrrFpMybU/f0C0SSuoa2eTMf9wCfgyEDuCby7T6fibX+4PET6MZNv/wx9+sUzQQKYowTkwDQ2dVX+Exxwe9u1JMMXKDu1lA0ExohMb1+gdEKxUuKZhJS8heY/1iH53Ag64D1IcsiAFnZcBsqX5l48y/3uGzZ52piYnooNbvEP+QRRTO2zn4CkUQgkhjGZsg0jI2LE6UuXjePuF7NKazQ6vQCkaS0vAYAYpNyLvrfo2jmxPkggUhyJzIRAIwTkwKRJLeokruXvKZRIJL09A3iYFcv6z0nLwS7+dwOjZh1o4JSBW5dUKr4zi3guMcP0QlZI3oDV9SoYYzok18iR33KKmbdt6dvUBid4ng20NnzRkOzqqFZJRBJXqn7iJDBYZ1Ykn3aJ8TW2e9aaIxWpydTpDOHg93CtyAAadh/n4ia7ey2vWC21b5XM2OF2Ynp3nGPH3gxSjMwjO6yk/GgaGaDpbPlYU+KZpCq4LuxAGB1xIu3CgB0egNFMz4BQu4W98VpFM0oapsAoLqu+fNNR9Ztc7B19vvqH2dQAoKvBEdRNHMtNIaiGQtr9y37XLHT1duPAJW618LanaKZjVYuuw9dIOBb9+IRIJMrzbc7UjSzk/FYb3mSohm/Gw8omsFDAwD5JXJzi2MUzeyz90ak5WFPrqrYn8OBagj+FDRLg1McPJFDuQq0YzAwCs9V8LgSjsbOAsxvQCdrPf5PcD+Rohlzi2M3w+NyCiuGtXzyMRYJRHNikZNHEEUzSRmFKK6x9RXaBTkAgMrqBl4sWpIDZFGl7kWZA0O6EOGMBZGDLftPKxvbcfZpegFFM+cuC/DR8RwbUZMzZ/R52dSxeS/LE+Fgo5WL+XbH6rpmxEsLypFj5KCvf8hsi72Nky+eMAAIjZBQNBMVm4548j+HAwB43gF/DIAtd0A+fetWtRoOBreutlOstqs+GNxa1ca6alk7bAxlYeUqIoffCRHGc4/tt47/yi+ZzYvmc9CrGeS+P4oTS7IpmnkXDgKmg94LZQtfPwDkICWrmDvleDaQoplx40R37wBFM+evhHFnoxOyCAd5xXKKZsSSbC7AwzeM+MGte6wFCMEIo3c57bP35i4BMFWjVXXC6AQLK67Xf2ItX3WgkrRPrOXF9eyhHjGCQs0TxX8cNYzlFlVevi76yw7WHymaycwrQ9B8DuQv2DMeI5lJnBBWXdf8jhzUvmzDrd18bscl52pHRomWyEG7qpuMAAB6cGtHF+ojTpRyZ+U1jYQDPB+8JC0qNp1w4Op96/NNR2RyJbcdcLj0xWY7rkzTHBDEZt+W39m84LXNvibOFFmyUEecKJ1SbvvBswiYz0FuUSVFM7xT2f6q5x05AABFbZObz23ilLxYpOmfE0xjk3Km4rtMrswprKBoJk1ayn0j1Adj0Z1INt52ds1evwCQnFlEODh00o9syutwZS7GQc/wm98fbTHZeobf8KQs5xHDPSYe8zl4oWyhaOa+OI0rSiZXLs4BAEyFDq+r4dxVN358Qu5k7niRrHqHDXvH4nWNflDf1MHFCERsyG5XdStqmyiaeRCXyZ0tq6gjfhCXnEtEEUz4w2TCwdnLAopm9KNjZHahDv8+ILhWzevVp7pNtjbNawIz2eFleAAwbpzYbn2OohnEDw2PUDTz/c0HZLlWp6do5pj7dTICAD7XhFwO6hrYwBL5eM6dttHK5eiZQO6qffbe862DAGT6UfzPU6cPOeDlBd8cOr9umwMAoD4nzgdxJWNyjH6AxUr4w2QCME5M7plO3vBOTkjNp2gmLPIpASzUWZADADDzG/nUU/upp477b+Y3spAsMv7nr496+IY9jMt8VlFbVlkXnZCFSaer9y2C2bT3lNlW++C7saQ+wDeMiEkdGNKpe/ovBUZgwkfu5LEx4xeb7ehdTiHCeKwPAACTS8zZWzu6LgVGoOPjYb91Lz5QEIPpprKxHYvHwmcKwsHfvzkhEqeO6A3NbZ3OnjcomiGSva6Go2v29A2qe/p9AoQbLJ2JH0xFub12F80tjqVLS0f0hvqmDpvj/0YAcjA2btx6wI2iGYcz18SS7JLnNTK5MiEln1yKxBSLcSAs+XWN7+SaK6//MP2/5grbF5Ys/cGIG39JKDzgcKmvf4hsXFCq+NtOJ5zF7E2r02NZgIMbrVxKntdw/QAAEtN+MdtqjwAUpdMb9n/HHnxse+0uBoU9Jn7w44MkMoWdoLDHuBD9oEhWvW6bA8FwD/6wVr/rn+fJ1Jd7XErLWX1IbtrSribpBpacj5+y1165oh636NUMunjdJBKwE5ecS4yAncU4YFPawtlqYK0/+7jMX2dXnzhRigVtQkp+ZXWDyYUvmzp0nNJUq9OnSUsjYlKfVdQaJybHjRMyuZJbdqKQuoY2UloDgGFsPF1aejcqKf6nPADo7h2QyZUkEKvUvY/ifxaIJHHJuY0ts2U9cqAZGB7RGzLzyoTRKbx6GwCGtfrU7BKePtx7WN2tSUz7JSo2HasEzEd5CmsGhqUF5cLolIycZ9xTSAyyBAcA0D8K0ga29fMrLSLko+wQDv5X2mt1+r/uPP71tzO53/LFLs3B8mV9XMh35GDcOLHDxj1QEIOfvAQiyfrd7OcKvGzeyhQrHMypD97KdvgJiIT7wy7f19T/N8XTb5eDtzL3QmB5TaNMrqya/j64EGbJ8RUOljTRewescPDeTbzkBiscLGmi9w5Y4eC9m3jJDf4D8CiVOR9LGnYAAAAASUVORK5CYII=;" vertex="1" parent="1">
          <mxGeometry x="345" y="1065" width="101" height="20.35" as="geometry" />
        </mxCell>
        <mxCell id="TvpjpGgyVsRweBhkjj-o-287" value="" style="shape=image;verticalLabelPosition=bottom;labelBackgroundColor=default;verticalAlign=top;aspect=fixed;imageAspect=0;image=data:image/png,iVBORw0KGgoAAAANSUhEUgAAAIEAAAAaCAIAAAAfY6iHAAAI20lEQVRoBe1Ya1BTSRb2x9b82n/+nH9rXWurZoZya9ndu+r4mhF1BF87wl1RGERREFFBQXBdZARxQEUiDoYIKkQEgjA8B8JjeEoEQhAI8oZIeIVXQggEdOosl0M1l0t4uK7lWkOqK9W3++vT556vz+lz7ipY+X1oC6z60Aqs7A8rHHz4Q7DCwf83B5NvoKYLMpQQKWNbhhLquuH1r8tVWizJvuh/z/50gK2z35XgyLxi+XJX/sZwpv3guQoOx8BngbDWn98+CwQ7MVR1Lmanzq6+TXtPUTTDa9EJWbhMpzcIRJKyyrrFpMybU/f0C0SSuoa2eTMf9wCfgyEDuCby7T6fibX+4PET6MZNv/wx9+sUzQQKYowTkwDQ2dVX+Exxwe9u1JMMXKDu1lA0ExohMb1+gdEKxUuKZhJS8heY/1iH53Ag64D1IcsiAFnZcBsqX5l48y/3uGzZ52piYnooNbvEP+QRRTO2zn4CkUQgkhjGZsg0jI2LE6UuXjePuF7NKazQ6vQCkaS0vAYAYpNyLvrfo2jmxPkggUhyJzIRAIwTkwKRJLeokruXvKZRIJL09A3iYFcv6z0nLwS7+dwOjZh1o4JSBW5dUKr4zi3guMcP0QlZI3oDV9SoYYzok18iR33KKmbdt6dvUBid4ng20NnzRkOzqqFZJRBJXqn7iJDBYZ1Ykn3aJ8TW2e9aaIxWpydTpDOHg93CtyAAadh/n4ia7ey2vWC21b5XM2OF2Ynp3nGPH3gxSjMwjO6yk/GgaGaDpbPlYU+KZpCq4LuxAGB1xIu3CgB0egNFMz4BQu4W98VpFM0oapsAoLqu+fNNR9Ztc7B19vvqH2dQAoKvBEdRNHMtNIaiGQtr9y37XLHT1duPAJW618LanaKZjVYuuw9dIOBb9+IRIJMrzbc7UjSzk/FYb3mSohm/Gw8omsFDAwD5JXJzi2MUzeyz90ak5WFPrqrYn8OBagj+FDRLg1McPJFDuQq0YzAwCs9V8LgSjsbOAsxvQCdrPf5PcD+Rohlzi2M3w+NyCiuGtXzyMRYJRHNikZNHEEUzSRmFKK6x9RXaBTkAgMrqBl4sWpIDZFGl7kWZA0O6EOGMBZGDLftPKxvbcfZpegFFM+cuC/DR8RwbUZMzZ/R52dSxeS/LE+Fgo5WL+XbH6rpmxEsLypFj5KCvf8hsi72Nky+eMAAIjZBQNBMVm4548j+HAwB43gF/DIAtd0A+fetWtRoOBreutlOstqs+GNxa1ca6alk7bAxlYeUqIoffCRHGc4/tt47/yi+ZzYvmc9CrGeS+P4oTS7IpmnkXDgKmg94LZQtfPwDkICWrmDvleDaQoplx40R37wBFM+evhHFnoxOyCAd5xXKKZsSSbC7AwzeM+MGte6wFCMEIo3c57bP35i4BMFWjVXXC6AQLK67Xf2ItX3WgkrRPrOXF9eyhHjGCQs0TxX8cNYzlFlVevi76yw7WHymaycwrQ9B8DuQv2DMeI5lJnBBWXdf8jhzUvmzDrd18bscl52pHRomWyEG7qpuMAAB6cGtHF+ojTpRyZ+U1jYQDPB+8JC0qNp1w4Op96/NNR2RyJbcdcLj0xWY7rkzTHBDEZt+W39m84LXNvibOFFmyUEecKJ1SbvvBswiYz0FuUSVFM7xT2f6q5x05AABFbZObz23ilLxYpOmfE0xjk3Km4rtMrswprKBoJk1ayn0j1Adj0Z1INt52ds1evwCQnFlEODh00o9syutwZS7GQc/wm98fbTHZeobf8KQs5xHDPSYe8zl4oWyhaOa+OI0rSiZXLs4BAEyFDq+r4dxVN358Qu5k7niRrHqHDXvH4nWNflDf1MHFCERsyG5XdStqmyiaeRCXyZ0tq6gjfhCXnEtEEUz4w2TCwdnLAopm9KNjZHahDv8+ILhWzevVp7pNtjbNawIz2eFleAAwbpzYbn2OohnEDw2PUDTz/c0HZLlWp6do5pj7dTICAD7XhFwO6hrYwBL5eM6dttHK5eiZQO6qffbe862DAGT6UfzPU6cPOeDlBd8cOr9umwMAoD4nzgdxJWNyjH6AxUr4w2QCME5M7plO3vBOTkjNp2gmLPIpASzUWZADADDzG/nUU/upp477b+Y3spAsMv7nr496+IY9jMt8VlFbVlkXnZCFSaer9y2C2bT3lNlW++C7saQ+wDeMiEkdGNKpe/ovBUZgwkfu5LEx4xeb7ehdTiHCeKwPAACTS8zZWzu6LgVGoOPjYb91Lz5QEIPpprKxHYvHwmcKwsHfvzkhEqeO6A3NbZ3OnjcomiGSva6Go2v29A2qe/p9AoQbLJ2JH0xFub12F80tjqVLS0f0hvqmDpvj/0YAcjA2btx6wI2iGYcz18SS7JLnNTK5MiEln1yKxBSLcSAs+XWN7+SaK6//MP2/5grbF5Ys/cGIG39JKDzgcKmvf4hsXFCq+NtOJ5zF7E2r02NZgIMbrVxKntdw/QAAEtN+MdtqjwAUpdMb9n/HHnxse+0uBoU9Jn7w44MkMoWdoLDHuBD9oEhWvW6bA8FwD/6wVr/rn+fJ1Jd7XErLWX1IbtrSribpBpacj5+y1165oh636NUMunjdJBKwE5ecS4yAncU4YFPawtlqYK0/+7jMX2dXnzhRigVtQkp+ZXWDyYUvmzp0nNJUq9OnSUsjYlKfVdQaJybHjRMyuZJbdqKQuoY2UloDgGFsPF1aejcqKf6nPADo7h2QyZUkEKvUvY/ifxaIJHHJuY0ts2U9cqAZGB7RGzLzyoTRKbx6GwCGtfrU7BKePtx7WN2tSUz7JSo2HasEzEd5CmsGhqUF5cLolIycZ9xTSAyyBAcA0D8K0ga29fMrLSLko+wQDv5X2mt1+r/uPP71tzO53/LFLs3B8mV9XMh35GDcOLHDxj1QEIOfvAQiyfrd7OcKvGzeyhQrHMypD97KdvgJiIT7wy7f19T/N8XTb5eDtzL3QmB5TaNMrqya/j64EGbJ8RUOljTRewescPDeTbzkBiscLGmi9w5Y4eC9m3jJDf4D8CiVOR9LGnYAAAAASUVORK5CYII=;" vertex="1" parent="1">
          <mxGeometry x="328" y="1255" width="101" height="20.35" as="geometry" />
        </mxCell>
        <mxCell id="TvpjpGgyVsRweBhkjj-o-288" value="" style="shape=image;verticalLabelPosition=bottom;labelBackgroundColor=default;verticalAlign=top;aspect=fixed;imageAspect=0;image=data:image/png,iVBORw0KGgoAAAANSUhEUgAAAIEAAAAaCAIAAAAfY6iHAAAI20lEQVRoBe1Ya1BTSRb2x9b82n/+nH9rXWurZoZya9ndu+r4mhF1BF87wl1RGERREFFBQXBdZARxQEUiDoYIKkQEgjA8B8JjeEoEQhAI8oZIeIVXQggEdOosl0M1l0t4uK7lWkOqK9W3++vT556vz+lz7ipY+X1oC6z60Aqs7A8rHHz4Q7DCwf83B5NvoKYLMpQQKWNbhhLquuH1r8tVWizJvuh/z/50gK2z35XgyLxi+XJX/sZwpv3guQoOx8BngbDWn98+CwQ7MVR1Lmanzq6+TXtPUTTDa9EJWbhMpzcIRJKyyrrFpMybU/f0C0SSuoa2eTMf9wCfgyEDuCby7T6fibX+4PET6MZNv/wx9+sUzQQKYowTkwDQ2dVX+Exxwe9u1JMMXKDu1lA0ExohMb1+gdEKxUuKZhJS8heY/1iH53Ag64D1IcsiAFnZcBsqX5l48y/3uGzZ52piYnooNbvEP+QRRTO2zn4CkUQgkhjGZsg0jI2LE6UuXjePuF7NKazQ6vQCkaS0vAYAYpNyLvrfo2jmxPkggUhyJzIRAIwTkwKRJLeokruXvKZRIJL09A3iYFcv6z0nLwS7+dwOjZh1o4JSBW5dUKr4zi3guMcP0QlZI3oDV9SoYYzok18iR33KKmbdt6dvUBid4ng20NnzRkOzqqFZJRBJXqn7iJDBYZ1Ykn3aJ8TW2e9aaIxWpydTpDOHg93CtyAAadh/n4ia7ey2vWC21b5XM2OF2Ynp3nGPH3gxSjMwjO6yk/GgaGaDpbPlYU+KZpCq4LuxAGB1xIu3CgB0egNFMz4BQu4W98VpFM0oapsAoLqu+fNNR9Ztc7B19vvqH2dQAoKvBEdRNHMtNIaiGQtr9y37XLHT1duPAJW618LanaKZjVYuuw9dIOBb9+IRIJMrzbc7UjSzk/FYb3mSohm/Gw8omsFDAwD5JXJzi2MUzeyz90ak5WFPrqrYn8OBagj+FDRLg1McPJFDuQq0YzAwCs9V8LgSjsbOAsxvQCdrPf5PcD+Rohlzi2M3w+NyCiuGtXzyMRYJRHNikZNHEEUzSRmFKK6x9RXaBTkAgMrqBl4sWpIDZFGl7kWZA0O6EOGMBZGDLftPKxvbcfZpegFFM+cuC/DR8RwbUZMzZ/R52dSxeS/LE+Fgo5WL+XbH6rpmxEsLypFj5KCvf8hsi72Nky+eMAAIjZBQNBMVm4548j+HAwB43gF/DIAtd0A+fetWtRoOBreutlOstqs+GNxa1ca6alk7bAxlYeUqIoffCRHGc4/tt47/yi+ZzYvmc9CrGeS+P4oTS7IpmnkXDgKmg94LZQtfPwDkICWrmDvleDaQoplx40R37wBFM+evhHFnoxOyCAd5xXKKZsSSbC7AwzeM+MGte6wFCMEIo3c57bP35i4BMFWjVXXC6AQLK67Xf2ItX3WgkrRPrOXF9eyhHjGCQs0TxX8cNYzlFlVevi76yw7WHymaycwrQ9B8DuQv2DMeI5lJnBBWXdf8jhzUvmzDrd18bscl52pHRomWyEG7qpuMAAB6cGtHF+ojTpRyZ+U1jYQDPB+8JC0qNp1w4Op96/NNR2RyJbcdcLj0xWY7rkzTHBDEZt+W39m84LXNvibOFFmyUEecKJ1SbvvBswiYz0FuUSVFM7xT2f6q5x05AABFbZObz23ilLxYpOmfE0xjk3Km4rtMrswprKBoJk1ayn0j1Adj0Z1INt52ds1evwCQnFlEODh00o9syutwZS7GQc/wm98fbTHZeobf8KQs5xHDPSYe8zl4oWyhaOa+OI0rSiZXLs4BAEyFDq+r4dxVN358Qu5k7niRrHqHDXvH4nWNflDf1MHFCERsyG5XdStqmyiaeRCXyZ0tq6gjfhCXnEtEEUz4w2TCwdnLAopm9KNjZHahDv8+ILhWzevVp7pNtjbNawIz2eFleAAwbpzYbn2OohnEDw2PUDTz/c0HZLlWp6do5pj7dTICAD7XhFwO6hrYwBL5eM6dttHK5eiZQO6qffbe862DAGT6UfzPU6cPOeDlBd8cOr9umwMAoD4nzgdxJWNyjH6AxUr4w2QCME5M7plO3vBOTkjNp2gmLPIpASzUWZADADDzG/nUU/upp477b+Y3spAsMv7nr496+IY9jMt8VlFbVlkXnZCFSaer9y2C2bT3lNlW++C7saQ+wDeMiEkdGNKpe/ovBUZgwkfu5LEx4xeb7ehdTiHCeKwPAACTS8zZWzu6LgVGoOPjYb91Lz5QEIPpprKxHYvHwmcKwsHfvzkhEqeO6A3NbZ3OnjcomiGSva6Go2v29A2qe/p9AoQbLJ2JH0xFub12F80tjqVLS0f0hvqmDpvj/0YAcjA2btx6wI2iGYcz18SS7JLnNTK5MiEln1yKxBSLcSAs+XWN7+SaK6//MP2/5grbF5Ys/cGIG39JKDzgcKmvf4hsXFCq+NtOJ5zF7E2r02NZgIMbrVxKntdw/QAAEtN+MdtqjwAUpdMb9n/HHnxse+0uBoU9Jn7w44MkMoWdoLDHuBD9oEhWvW6bA8FwD/6wVr/rn+fJ1Jd7XErLWX1IbtrSribpBpacj5+y1165oh636NUMunjdJBKwE5ecS4yAncU4YFPawtlqYK0/+7jMX2dXnzhRigVtQkp+ZXWDyYUvmzp0nNJUq9OnSUsjYlKfVdQaJybHjRMyuZJbdqKQuoY2UloDgGFsPF1aejcqKf6nPADo7h2QyZUkEKvUvY/ifxaIJHHJuY0ts2U9cqAZGB7RGzLzyoTRKbx6GwCGtfrU7BKePtx7WN2tSUz7JSo2HasEzEd5CmsGhqUF5cLolIycZ9xTSAyyBAcA0D8K0ga29fMrLSLko+wQDv5X2mt1+r/uPP71tzO53/LFLs3B8mV9XMh35GDcOLHDxj1QEIOfvAQiyfrd7OcKvGzeyhQrHMypD97KdvgJiIT7wy7f19T/N8XTb5eDtzL3QmB5TaNMrqya/j64EGbJ8RUOljTRewescPDeTbzkBiscLGmi9w5Y4eC9m3jJDf4D8CiVOR9LGnYAAAAASUVORK5CYII=;" vertex="1" parent="1">
          <mxGeometry x="289" y="1316" width="101" height="20.35" as="geometry" />
        </mxCell>
        <mxCell id="TvpjpGgyVsRweBhkjj-o-289" value="" style="shape=image;verticalLabelPosition=bottom;labelBackgroundColor=default;verticalAlign=top;aspect=fixed;imageAspect=0;image=data:image/png,iVBORw0KGgoAAAANSUhEUgAAAIEAAAAaCAIAAAAfY6iHAAAI20lEQVRoBe1Ya1BTSRb2x9b82n/+nH9rXWurZoZya9ndu+r4mhF1BF87wl1RGERREFFBQXBdZARxQEUiDoYIKkQEgjA8B8JjeEoEQhAI8oZIeIVXQggEdOosl0M1l0t4uK7lWkOqK9W3++vT556vz+lz7ipY+X1oC6z60Aqs7A8rHHz4Q7DCwf83B5NvoKYLMpQQKWNbhhLquuH1r8tVWizJvuh/z/50gK2z35XgyLxi+XJX/sZwpv3guQoOx8BngbDWn98+CwQ7MVR1Lmanzq6+TXtPUTTDa9EJWbhMpzcIRJKyyrrFpMybU/f0C0SSuoa2eTMf9wCfgyEDuCby7T6fibX+4PET6MZNv/wx9+sUzQQKYowTkwDQ2dVX+Exxwe9u1JMMXKDu1lA0ExohMb1+gdEKxUuKZhJS8heY/1iH53Ag64D1IcsiAFnZcBsqX5l48y/3uGzZ52piYnooNbvEP+QRRTO2zn4CkUQgkhjGZsg0jI2LE6UuXjePuF7NKazQ6vQCkaS0vAYAYpNyLvrfo2jmxPkggUhyJzIRAIwTkwKRJLeokruXvKZRIJL09A3iYFcv6z0nLwS7+dwOjZh1o4JSBW5dUKr4zi3guMcP0QlZI3oDV9SoYYzok18iR33KKmbdt6dvUBid4ng20NnzRkOzqqFZJRBJXqn7iJDBYZ1Ykn3aJ8TW2e9aaIxWpydTpDOHg93CtyAAadh/n4ia7ey2vWC21b5XM2OF2Ynp3nGPH3gxSjMwjO6yk/GgaGaDpbPlYU+KZpCq4LuxAGB1xIu3CgB0egNFMz4BQu4W98VpFM0oapsAoLqu+fNNR9Ztc7B19vvqH2dQAoKvBEdRNHMtNIaiGQtr9y37XLHT1duPAJW618LanaKZjVYuuw9dIOBb9+IRIJMrzbc7UjSzk/FYb3mSohm/Gw8omsFDAwD5JXJzi2MUzeyz90ak5WFPrqrYn8OBagj+FDRLg1McPJFDuQq0YzAwCs9V8LgSjsbOAsxvQCdrPf5PcD+Rohlzi2M3w+NyCiuGtXzyMRYJRHNikZNHEEUzSRmFKK6x9RXaBTkAgMrqBl4sWpIDZFGl7kWZA0O6EOGMBZGDLftPKxvbcfZpegFFM+cuC/DR8RwbUZMzZ/R52dSxeS/LE+Fgo5WL+XbH6rpmxEsLypFj5KCvf8hsi72Nky+eMAAIjZBQNBMVm4548j+HAwB43gF/DIAtd0A+fetWtRoOBreutlOstqs+GNxa1ca6alk7bAxlYeUqIoffCRHGc4/tt47/yi+ZzYvmc9CrGeS+P4oTS7IpmnkXDgKmg94LZQtfPwDkICWrmDvleDaQoplx40R37wBFM+evhHFnoxOyCAd5xXKKZsSSbC7AwzeM+MGte6wFCMEIo3c57bP35i4BMFWjVXXC6AQLK67Xf2ItX3WgkrRPrOXF9eyhHjGCQs0TxX8cNYzlFlVevi76yw7WHymaycwrQ9B8DuQv2DMeI5lJnBBWXdf8jhzUvmzDrd18bscl52pHRomWyEG7qpuMAAB6cGtHF+ojTpRyZ+U1jYQDPB+8JC0qNp1w4Op96/NNR2RyJbcdcLj0xWY7rkzTHBDEZt+W39m84LXNvibOFFmyUEecKJ1SbvvBswiYz0FuUSVFM7xT2f6q5x05AABFbZObz23ilLxYpOmfE0xjk3Km4rtMrswprKBoJk1ayn0j1Adj0Z1INt52ds1evwCQnFlEODh00o9syutwZS7GQc/wm98fbTHZeobf8KQs5xHDPSYe8zl4oWyhaOa+OI0rSiZXLs4BAEyFDq+r4dxVN358Qu5k7niRrHqHDXvH4nWNflDf1MHFCERsyG5XdStqmyiaeRCXyZ0tq6gjfhCXnEtEEUz4w2TCwdnLAopm9KNjZHahDv8+ILhWzevVp7pNtjbNawIz2eFleAAwbpzYbn2OohnEDw2PUDTz/c0HZLlWp6do5pj7dTICAD7XhFwO6hrYwBL5eM6dttHK5eiZQO6qffbe862DAGT6UfzPU6cPOeDlBd8cOr9umwMAoD4nzgdxJWNyjH6AxUr4w2QCME5M7plO3vBOTkjNp2gmLPIpASzUWZADADDzG/nUU/upp477b+Y3spAsMv7nr496+IY9jMt8VlFbVlkXnZCFSaer9y2C2bT3lNlW++C7saQ+wDeMiEkdGNKpe/ovBUZgwkfu5LEx4xeb7ehdTiHCeKwPAACTS8zZWzu6LgVGoOPjYb91Lz5QEIPpprKxHYvHwmcKwsHfvzkhEqeO6A3NbZ3OnjcomiGSva6Go2v29A2qe/p9AoQbLJ2JH0xFub12F80tjqVLS0f0hvqmDpvj/0YAcjA2btx6wI2iGYcz18SS7JLnNTK5MiEln1yKxBSLcSAs+XWN7+SaK6//MP2/5grbF5Ys/cGIG39JKDzgcKmvf4hsXFCq+NtOJ5zF7E2r02NZgIMbrVxKntdw/QAAEtN+MdtqjwAUpdMb9n/HHnxse+0uBoU9Jn7w44MkMoWdoLDHuBD9oEhWvW6bA8FwD/6wVr/rn+fJ1Jd7XErLWX1IbtrSribpBpacj5+y1165oh636NUMunjdJBKwE5ecS4yAncU4YFPawtlqYK0/+7jMX2dXnzhRigVtQkp+ZXWDyYUvmzp0nNJUq9OnSUsjYlKfVdQaJybHjRMyuZJbdqKQuoY2UloDgGFsPF1aejcqKf6nPADo7h2QyZUkEKvUvY/ifxaIJHHJuY0ts2U9cqAZGB7RGzLzyoTRKbx6GwCGtfrU7BKePtx7WN2tSUz7JSo2HasEzEd5CmsGhqUF5cLolIycZ9xTSAyyBAcA0D8K0ga29fMrLSLko+wQDv5X2mt1+r/uPP71tzO53/LFLs3B8mV9XMh35GDcOLHDxj1QEIOfvAQiyfrd7OcKvGzeyhQrHMypD97KdvgJiIT7wy7f19T/N8XTb5eDtzL3QmB5TaNMrqya/j64EGbJ8RUOljTRewescPDeTbzkBiscLGmi9w5Y4eC9m3jJDf4D8CiVOR9LGnYAAAAASUVORK5CYII=;" vertex="1" parent="1">
          <mxGeometry x="299" y="1398" width="101" height="20.35" as="geometry" />
        </mxCell>
        <mxCell id="TvpjpGgyVsRweBhkjj-o-290" value="" style="shape=image;verticalLabelPosition=bottom;labelBackgroundColor=default;verticalAlign=top;aspect=fixed;imageAspect=0;image=data:image/png,iVBORw0KGgoAAAANSUhEUgAAAIEAAAAaCAIAAAAfY6iHAAAI20lEQVRoBe1Ya1BTSRb2x9b82n/+nH9rXWurZoZya9ndu+r4mhF1BF87wl1RGERREFFBQXBdZARxQEUiDoYIKkQEgjA8B8JjeEoEQhAI8oZIeIVXQggEdOosl0M1l0t4uK7lWkOqK9W3++vT556vz+lz7ipY+X1oC6z60Aqs7A8rHHz4Q7DCwf83B5NvoKYLMpQQKWNbhhLquuH1r8tVWizJvuh/z/50gK2z35XgyLxi+XJX/sZwpv3guQoOx8BngbDWn98+CwQ7MVR1Lmanzq6+TXtPUTTDa9EJWbhMpzcIRJKyyrrFpMybU/f0C0SSuoa2eTMf9wCfgyEDuCby7T6fibX+4PET6MZNv/wx9+sUzQQKYowTkwDQ2dVX+Exxwe9u1JMMXKDu1lA0ExohMb1+gdEKxUuKZhJS8heY/1iH53Ag64D1IcsiAFnZcBsqX5l48y/3uGzZ52piYnooNbvEP+QRRTO2zn4CkUQgkhjGZsg0jI2LE6UuXjePuF7NKazQ6vQCkaS0vAYAYpNyLvrfo2jmxPkggUhyJzIRAIwTkwKRJLeokruXvKZRIJL09A3iYFcv6z0nLwS7+dwOjZh1o4JSBW5dUKr4zi3guMcP0QlZI3oDV9SoYYzok18iR33KKmbdt6dvUBid4ng20NnzRkOzqqFZJRBJXqn7iJDBYZ1Ykn3aJ8TW2e9aaIxWpydTpDOHg93CtyAAadh/n4ia7ey2vWC21b5XM2OF2Ynp3nGPH3gxSjMwjO6yk/GgaGaDpbPlYU+KZpCq4LuxAGB1xIu3CgB0egNFMz4BQu4W98VpFM0oapsAoLqu+fNNR9Ztc7B19vvqH2dQAoKvBEdRNHMtNIaiGQtr9y37XLHT1duPAJW618LanaKZjVYuuw9dIOBb9+IRIJMrzbc7UjSzk/FYb3mSohm/Gw8omsFDAwD5JXJzi2MUzeyz90ak5WFPrqrYn8OBagj+FDRLg1McPJFDuQq0YzAwCs9V8LgSjsbOAsxvQCdrPf5PcD+Rohlzi2M3w+NyCiuGtXzyMRYJRHNikZNHEEUzSRmFKK6x9RXaBTkAgMrqBl4sWpIDZFGl7kWZA0O6EOGMBZGDLftPKxvbcfZpegFFM+cuC/DR8RwbUZMzZ/R52dSxeS/LE+Fgo5WL+XbH6rpmxEsLypFj5KCvf8hsi72Nky+eMAAIjZBQNBMVm4548j+HAwB43gF/DIAtd0A+fetWtRoOBreutlOstqs+GNxa1ca6alk7bAxlYeUqIoffCRHGc4/tt47/yi+ZzYvmc9CrGeS+P4oTS7IpmnkXDgKmg94LZQtfPwDkICWrmDvleDaQoplx40R37wBFM+evhHFnoxOyCAd5xXKKZsSSbC7AwzeM+MGte6wFCMEIo3c57bP35i4BMFWjVXXC6AQLK67Xf2ItX3WgkrRPrOXF9eyhHjGCQs0TxX8cNYzlFlVevi76yw7WHymaycwrQ9B8DuQv2DMeI5lJnBBWXdf8jhzUvmzDrd18bscl52pHRomWyEG7qpuMAAB6cGtHF+ojTpRyZ+U1jYQDPB+8JC0qNp1w4Op96/NNR2RyJbcdcLj0xWY7rkzTHBDEZt+W39m84LXNvibOFFmyUEecKJ1SbvvBswiYz0FuUSVFM7xT2f6q5x05AABFbZObz23ilLxYpOmfE0xjk3Km4rtMrswprKBoJk1ayn0j1Adj0Z1INt52ds1evwCQnFlEODh00o9syutwZS7GQc/wm98fbTHZeobf8KQs5xHDPSYe8zl4oWyhaOa+OI0rSiZXLs4BAEyFDq+r4dxVN358Qu5k7niRrHqHDXvH4nWNflDf1MHFCERsyG5XdStqmyiaeRCXyZ0tq6gjfhCXnEtEEUz4w2TCwdnLAopm9KNjZHahDv8+ILhWzevVp7pNtjbNawIz2eFleAAwbpzYbn2OohnEDw2PUDTz/c0HZLlWp6do5pj7dTICAD7XhFwO6hrYwBL5eM6dttHK5eiZQO6qffbe862DAGT6UfzPU6cPOeDlBd8cOr9umwMAoD4nzgdxJWNyjH6AxUr4w2QCME5M7plO3vBOTkjNp2gmLPIpASzUWZADADDzG/nUU/upp477b+Y3spAsMv7nr496+IY9jMt8VlFbVlkXnZCFSaer9y2C2bT3lNlW++C7saQ+wDeMiEkdGNKpe/ovBUZgwkfu5LEx4xeb7ehdTiHCeKwPAACTS8zZWzu6LgVGoOPjYb91Lz5QEIPpprKxHYvHwmcKwsHfvzkhEqeO6A3NbZ3OnjcomiGSva6Go2v29A2qe/p9AoQbLJ2JH0xFub12F80tjqVLS0f0hvqmDpvj/0YAcjA2btx6wI2iGYcz18SS7JLnNTK5MiEln1yKxBSLcSAs+XWN7+SaK6//MP2/5grbF5Ys/cGIG39JKDzgcKmvf4hsXFCq+NtOJ5zF7E2r02NZgIMbrVxKntdw/QAAEtN+MdtqjwAUpdMb9n/HHnxse+0uBoU9Jn7w44MkMoWdoLDHuBD9oEhWvW6bA8FwD/6wVr/rn+fJ1Jd7XErLWX1IbtrSribpBpacj5+y1165oh636NUMunjdJBKwE5ecS4yAncU4YFPawtlqYK0/+7jMX2dXnzhRigVtQkp+ZXWDyYUvmzp0nNJUq9OnSUsjYlKfVdQaJybHjRMyuZJbdqKQuoY2UloDgGFsPF1aejcqKf6nPADo7h2QyZUkEKvUvY/ifxaIJHHJuY0ts2U9cqAZGB7RGzLzyoTRKbx6GwCGtfrU7BKePtx7WN2tSUz7JSo2HasEzEd5CmsGhqUF5cLolIycZ9xTSAyyBAcA0D8K0ga29fMrLSLko+wQDv5X2mt1+r/uPP71tzO53/LFLs3B8mV9XMh35GDcOLHDxj1QEIOfvAQiyfrd7OcKvGzeyhQrHMypD97KdvgJiIT7wy7f19T/N8XTb5eDtzL3QmB5TaNMrqya/j64EGbJ8RUOljTRewescPDeTbzkBiscLGmi9w5Y4eC9m3jJDf4D8CiVOR9LGnYAAAAASUVORK5CYII=;" vertex="1" parent="1">
          <mxGeometry x="343" y="1458" width="101" height="20.35" as="geometry" />
        </mxCell>
        <mxCell id="TvpjpGgyVsRweBhkjj-o-291" value="" style="shape=image;verticalLabelPosition=bottom;labelBackgroundColor=default;verticalAlign=top;aspect=fixed;imageAspect=0;image=data:image/png,iVBORw0KGgoAAAANSUhEUgAAAIEAAAAaCAIAAAAfY6iHAAAI20lEQVRoBe1Ya1BTSRb2x9b82n/+nH9rXWurZoZya9ndu+r4mhF1BF87wl1RGERREFFBQXBdZARxQEUiDoYIKkQEgjA8B8JjeEoEQhAI8oZIeIVXQggEdOosl0M1l0t4uK7lWkOqK9W3++vT556vz+lz7ipY+X1oC6z60Aqs7A8rHHz4Q7DCwf83B5NvoKYLMpQQKWNbhhLquuH1r8tVWizJvuh/z/50gK2z35XgyLxi+XJX/sZwpv3guQoOx8BngbDWn98+CwQ7MVR1Lmanzq6+TXtPUTTDa9EJWbhMpzcIRJKyyrrFpMybU/f0C0SSuoa2eTMf9wCfgyEDuCby7T6fibX+4PET6MZNv/wx9+sUzQQKYowTkwDQ2dVX+Exxwe9u1JMMXKDu1lA0ExohMb1+gdEKxUuKZhJS8heY/1iH53Ag64D1IcsiAFnZcBsqX5l48y/3uGzZ52piYnooNbvEP+QRRTO2zn4CkUQgkhjGZsg0jI2LE6UuXjePuF7NKazQ6vQCkaS0vAYAYpNyLvrfo2jmxPkggUhyJzIRAIwTkwKRJLeokruXvKZRIJL09A3iYFcv6z0nLwS7+dwOjZh1o4JSBW5dUKr4zi3guMcP0QlZI3oDV9SoYYzok18iR33KKmbdt6dvUBid4ng20NnzRkOzqqFZJRBJXqn7iJDBYZ1Ykn3aJ8TW2e9aaIxWpydTpDOHg93CtyAAadh/n4ia7ey2vWC21b5XM2OF2Ynp3nGPH3gxSjMwjO6yk/GgaGaDpbPlYU+KZpCq4LuxAGB1xIu3CgB0egNFMz4BQu4W98VpFM0oapsAoLqu+fNNR9Ztc7B19vvqH2dQAoKvBEdRNHMtNIaiGQtr9y37XLHT1duPAJW618LanaKZjVYuuw9dIOBb9+IRIJMrzbc7UjSzk/FYb3mSohm/Gw8omsFDAwD5JXJzi2MUzeyz90ak5WFPrqrYn8OBagj+FDRLg1McPJFDuQq0YzAwCs9V8LgSjsbOAsxvQCdrPf5PcD+Rohlzi2M3w+NyCiuGtXzyMRYJRHNikZNHEEUzSRmFKK6x9RXaBTkAgMrqBl4sWpIDZFGl7kWZA0O6EOGMBZGDLftPKxvbcfZpegFFM+cuC/DR8RwbUZMzZ/R52dSxeS/LE+Fgo5WL+XbH6rpmxEsLypFj5KCvf8hsi72Nky+eMAAIjZBQNBMVm4548j+HAwB43gF/DIAtd0A+fetWtRoOBreutlOstqs+GNxa1ca6alk7bAxlYeUqIoffCRHGc4/tt47/yi+ZzYvmc9CrGeS+P4oTS7IpmnkXDgKmg94LZQtfPwDkICWrmDvleDaQoplx40R37wBFM+evhHFnoxOyCAd5xXKKZsSSbC7AwzeM+MGte6wFCMEIo3c57bP35i4BMFWjVXXC6AQLK67Xf2ItX3WgkrRPrOXF9eyhHjGCQs0TxX8cNYzlFlVevi76yw7WHymaycwrQ9B8DuQv2DMeI5lJnBBWXdf8jhzUvmzDrd18bscl52pHRomWyEG7qpuMAAB6cGtHF+ojTpRyZ+U1jYQDPB+8JC0qNp1w4Op96/NNR2RyJbcdcLj0xWY7rkzTHBDEZt+W39m84LXNvibOFFmyUEecKJ1SbvvBswiYz0FuUSVFM7xT2f6q5x05AABFbZObz23ilLxYpOmfE0xjk3Km4rtMrswprKBoJk1ayn0j1Adj0Z1INt52ds1evwCQnFlEODh00o9syutwZS7GQc/wm98fbTHZeobf8KQs5xHDPSYe8zl4oWyhaOa+OI0rSiZXLs4BAEyFDq+r4dxVN358Qu5k7niRrHqHDXvH4nWNflDf1MHFCERsyG5XdStqmyiaeRCXyZ0tq6gjfhCXnEtEEUz4w2TCwdnLAopm9KNjZHahDv8+ILhWzevVp7pNtjbNawIz2eFleAAwbpzYbn2OohnEDw2PUDTz/c0HZLlWp6do5pj7dTICAD7XhFwO6hrYwBL5eM6dttHK5eiZQO6qffbe862DAGT6UfzPU6cPOeDlBd8cOr9umwMAoD4nzgdxJWNyjH6AxUr4w2QCME5M7plO3vBOTkjNp2gmLPIpASzUWZADADDzG/nUU/upp477b+Y3spAsMv7nr496+IY9jMt8VlFbVlkXnZCFSaer9y2C2bT3lNlW++C7saQ+wDeMiEkdGNKpe/ovBUZgwkfu5LEx4xeb7ehdTiHCeKwPAACTS8zZWzu6LgVGoOPjYb91Lz5QEIPpprKxHYvHwmcKwsHfvzkhEqeO6A3NbZ3OnjcomiGSva6Go2v29A2qe/p9AoQbLJ2JH0xFub12F80tjqVLS0f0hvqmDpvj/0YAcjA2btx6wI2iGYcz18SS7JLnNTK5MiEln1yKxBSLcSAs+XWN7+SaK6//MP2/5grbF5Ys/cGIG39JKDzgcKmvf4hsXFCq+NtOJ5zF7E2r02NZgIMbrVxKntdw/QAAEtN+MdtqjwAUpdMb9n/HHnxse+0uBoU9Jn7w44MkMoWdoLDHuBD9oEhWvW6bA8FwD/6wVr/rn+fJ1Jd7XErLWX1IbtrSribpBpacj5+y1165oh636NUMunjdJBKwE5ecS4yAncU4YFPawtlqYK0/+7jMX2dXnzhRigVtQkp+ZXWDyYUvmzp0nNJUq9OnSUsjYlKfVdQaJybHjRMyuZJbdqKQuoY2UloDgGFsPF1aejcqKf6nPADo7h2QyZUkEKvUvY/ifxaIJHHJuY0ts2U9cqAZGB7RGzLzyoTRKbx6GwCGtfrU7BKePtx7WN2tSUz7JSo2HasEzEd5CmsGhqUF5cLolIycZ9xTSAyyBAcA0D8K0ga29fMrLSLko+wQDv5X2mt1+r/uPP71tzO53/LFLs3B8mV9XMh35GDcOLHDxj1QEIOfvAQiyfrd7OcKvGzeyhQrHMypD97KdvgJiIT7wy7f19T/N8XTb5eDtzL3QmB5TaNMrqya/j64EGbJ8RUOljTRewescPDeTbzkBiscLGmi9w5Y4eC9m3jJDf4D8CiVOR9LGnYAAAAASUVORK5CYII=;" vertex="1" parent="1">
          <mxGeometry x="342" y="1519" width="101" height="20.35" as="geometry" />
        </mxCell>
        <mxCell id="TvpjpGgyVsRweBhkjj-o-294" value="" style="edgeStyle=orthogonalEdgeStyle;rounded=0;orthogonalLoop=1;jettySize=auto;html=1;" edge="1" parent="1" source="TvpjpGgyVsRweBhkjj-o-295" target="TvpjpGgyVsRweBhkjj-o-296">
          <mxGeometry relative="1" as="geometry" />
        </mxCell>
        <mxCell id="TvpjpGgyVsRweBhkjj-o-295" value="Update the Maintenance state to Complete." style="rounded=1;fontStyle=0" vertex="1" parent="1">
          <mxGeometry x="687.4300000000001" y="1270" width="253.13" height="30" as="geometry" />
        </mxCell>
        <mxCell id="TvpjpGgyVsRweBhkjj-o-296" value="Message: The scheduled&#xa;maintenance has been successfully completed.&#xa;Note: This issue is added in the product backlog&#xa;and will be part of the upcoming release." style="rounded=1;" vertex="1" parent="1">
          <mxGeometry x="650" y="1330" width="329" height="80" as="geometry" />
        </mxCell>
        <mxCell id="TvpjpGgyVsRweBhkjj-o-297" value="" style="shape=image;verticalLabelPosition=bottom;labelBackgroundColor=default;verticalAlign=top;aspect=fixed;imageAspect=0;image=data:image/png,iVBORw0KGgoAAAANSUhEUgAAAIEAAAAaCAIAAAAfY6iHAAAI20lEQVRoBe1Ya1BTSRb2x9b82n/+nH9rXWurZoZya9ndu+r4mhF1BF87wl1RGERREFFBQXBdZARxQEUiDoYIKkQEgjA8B8JjeEoEQhAI8oZIeIVXQggEdOosl0M1l0t4uK7lWkOqK9W3++vT556vz+lz7ipY+X1oC6z60Aqs7A8rHHz4Q7DCwf83B5NvoKYLMpQQKWNbhhLquuH1r8tVWizJvuh/z/50gK2z35XgyLxi+XJX/sZwpv3guQoOx8BngbDWn98+CwQ7MVR1Lmanzq6+TXtPUTTDa9EJWbhMpzcIRJKyyrrFpMybU/f0C0SSuoa2eTMf9wCfgyEDuCby7T6fibX+4PET6MZNv/wx9+sUzQQKYowTkwDQ2dVX+Exxwe9u1JMMXKDu1lA0ExohMb1+gdEKxUuKZhJS8heY/1iH53Ag64D1IcsiAFnZcBsqX5l48y/3uGzZ52piYnooNbvEP+QRRTO2zn4CkUQgkhjGZsg0jI2LE6UuXjePuF7NKazQ6vQCkaS0vAYAYpNyLvrfo2jmxPkggUhyJzIRAIwTkwKRJLeokruXvKZRIJL09A3iYFcv6z0nLwS7+dwOjZh1o4JSBW5dUKr4zi3guMcP0QlZI3oDV9SoYYzok18iR33KKmbdt6dvUBid4ng20NnzRkOzqqFZJRBJXqn7iJDBYZ1Ykn3aJ8TW2e9aaIxWpydTpDOHg93CtyAAadh/n4ia7ey2vWC21b5XM2OF2Ynp3nGPH3gxSjMwjO6yk/GgaGaDpbPlYU+KZpCq4LuxAGB1xIu3CgB0egNFMz4BQu4W98VpFM0oapsAoLqu+fNNR9Ztc7B19vvqH2dQAoKvBEdRNHMtNIaiGQtr9y37XLHT1duPAJW618LanaKZjVYuuw9dIOBb9+IRIJMrzbc7UjSzk/FYb3mSohm/Gw8omsFDAwD5JXJzi2MUzeyz90ak5WFPrqrYn8OBagj+FDRLg1McPJFDuQq0YzAwCs9V8LgSjsbOAsxvQCdrPf5PcD+Rohlzi2M3w+NyCiuGtXzyMRYJRHNikZNHEEUzSRmFKK6x9RXaBTkAgMrqBl4sWpIDZFGl7kWZA0O6EOGMBZGDLftPKxvbcfZpegFFM+cuC/DR8RwbUZMzZ/R52dSxeS/LE+Fgo5WL+XbH6rpmxEsLypFj5KCvf8hsi72Nky+eMAAIjZBQNBMVm4548j+HAwB43gF/DIAtd0A+fetWtRoOBreutlOstqs+GNxa1ca6alk7bAxlYeUqIoffCRHGc4/tt47/yi+ZzYvmc9CrGeS+P4oTS7IpmnkXDgKmg94LZQtfPwDkICWrmDvleDaQoplx40R37wBFM+evhHFnoxOyCAd5xXKKZsSSbC7AwzeM+MGte6wFCMEIo3c57bP35i4BMFWjVXXC6AQLK67Xf2ItX3WgkrRPrOXF9eyhHjGCQs0TxX8cNYzlFlVevi76yw7WHymaycwrQ9B8DuQv2DMeI5lJnBBWXdf8jhzUvmzDrd18bscl52pHRomWyEG7qpuMAAB6cGtHF+ojTpRyZ+U1jYQDPB+8JC0qNp1w4Op96/NNR2RyJbcdcLj0xWY7rkzTHBDEZt+W39m84LXNvibOFFmyUEecKJ1SbvvBswiYz0FuUSVFM7xT2f6q5x05AABFbZObz23ilLxYpOmfE0xjk3Km4rtMrswprKBoJk1ayn0j1Adj0Z1INt52ds1evwCQnFlEODh00o9syutwZS7GQc/wm98fbTHZeobf8KQs5xHDPSYe8zl4oWyhaOa+OI0rSiZXLs4BAEyFDq+r4dxVN358Qu5k7niRrHqHDXvH4nWNflDf1MHFCERsyG5XdStqmyiaeRCXyZ0tq6gjfhCXnEtEEUz4w2TCwdnLAopm9KNjZHahDv8+ILhWzevVp7pNtjbNawIz2eFleAAwbpzYbn2OohnEDw2PUDTz/c0HZLlWp6do5pj7dTICAD7XhFwO6hrYwBL5eM6dttHK5eiZQO6qffbe862DAGT6UfzPU6cPOeDlBd8cOr9umwMAoD4nzgdxJWNyjH6AxUr4w2QCME5M7plO3vBOTkjNp2gmLPIpASzUWZADADDzG/nUU/upp477b+Y3spAsMv7nr496+IY9jMt8VlFbVlkXnZCFSaer9y2C2bT3lNlW++C7saQ+wDeMiEkdGNKpe/ovBUZgwkfu5LEx4xeb7ehdTiHCeKwPAACTS8zZWzu6LgVGoOPjYb91Lz5QEIPpprKxHYvHwmcKwsHfvzkhEqeO6A3NbZ3OnjcomiGSva6Go2v29A2qe/p9AoQbLJ2JH0xFub12F80tjqVLS0f0hvqmDpvj/0YAcjA2btx6wI2iGYcz18SS7JLnNTK5MiEln1yKxBSLcSAs+XWN7+SaK6//MP2/5grbF5Ys/cGIG39JKDzgcKmvf4hsXFCq+NtOJ5zF7E2r02NZgIMbrVxKntdw/QAAEtN+MdtqjwAUpdMb9n/HHnxse+0uBoU9Jn7w44MkMoWdoLDHuBD9oEhWvW6bA8FwD/6wVr/rn+fJ1Jd7XErLWX1IbtrSribpBpacj5+y1165oh636NUMunjdJBKwE5ecS4yAncU4YFPawtlqYK0/+7jMX2dXnzhRigVtQkp+ZXWDyYUvmzp0nNJUq9OnSUsjYlKfVdQaJybHjRMyuZJbdqKQuoY2UloDgGFsPF1aejcqKf6nPADo7h2QyZUkEKvUvY/ifxaIJHHJuY0ts2U9cqAZGB7RGzLzyoTRKbx6GwCGtfrU7BKePtx7WN2tSUz7JSo2HasEzEd5CmsGhqUF5cLolIycZ9xTSAyyBAcA0D8K0ga29fMrLSLko+wQDv5X2mt1+r/uPP71tzO53/LFLs3B8mV9XMh35GDcOLHDxj1QEIOfvAQiyfrd7OcKvGzeyhQrHMypD97KdvgJiIT7wy7f19T/N8XTb5eDtzL3QmB5TaNMrqya/j64EGbJ8RUOljTRewescPDeTbzkBiscLGmi9w5Y4eC9m3jJDf4D8CiVOR9LGnYAAAAASUVORK5CYII=;" vertex="1" parent="1">
          <mxGeometry x="650" y="1316" width="101" height="20.35" as="geometry" />
        </mxCell>
        <mxCell id="TvpjpGgyVsRweBhkjj-o-298" value="" style="shape=image;verticalLabelPosition=bottom;labelBackgroundColor=default;verticalAlign=top;aspect=fixed;imageAspect=0;image=data:image/png,iVBORw0KGgoAAAANSUhEUgAAAIEAAAAaCAIAAAAfY6iHAAAI20lEQVRoBe1Ya1BTSRb2x9b82n/+nH9rXWurZoZya9ndu+r4mhF1BF87wl1RGERREFFBQXBdZARxQEUiDoYIKkQEgjA8B8JjeEoEQhAI8oZIeIVXQggEdOosl0M1l0t4uK7lWkOqK9W3++vT556vz+lz7ipY+X1oC6z60Aqs7A8rHHz4Q7DCwf83B5NvoKYLMpQQKWNbhhLquuH1r8tVWizJvuh/z/50gK2z35XgyLxi+XJX/sZwpv3guQoOx8BngbDWn98+CwQ7MVR1Lmanzq6+TXtPUTTDa9EJWbhMpzcIRJKyyrrFpMybU/f0C0SSuoa2eTMf9wCfgyEDuCby7T6fibX+4PET6MZNv/wx9+sUzQQKYowTkwDQ2dVX+Exxwe9u1JMMXKDu1lA0ExohMb1+gdEKxUuKZhJS8heY/1iH53Ag64D1IcsiAFnZcBsqX5l48y/3uGzZ52piYnooNbvEP+QRRTO2zn4CkUQgkhjGZsg0jI2LE6UuXjePuF7NKazQ6vQCkaS0vAYAYpNyLvrfo2jmxPkggUhyJzIRAIwTkwKRJLeokruXvKZRIJL09A3iYFcv6z0nLwS7+dwOjZh1o4JSBW5dUKr4zi3guMcP0QlZI3oDV9SoYYzok18iR33KKmbdt6dvUBid4ng20NnzRkOzqqFZJRBJXqn7iJDBYZ1Ykn3aJ8TW2e9aaIxWpydTpDOHg93CtyAAadh/n4ia7ey2vWC21b5XM2OF2Ynp3nGPH3gxSjMwjO6yk/GgaGaDpbPlYU+KZpCq4LuxAGB1xIu3CgB0egNFMz4BQu4W98VpFM0oapsAoLqu+fNNR9Ztc7B19vvqH2dQAoKvBEdRNHMtNIaiGQtr9y37XLHT1duPAJW618LanaKZjVYuuw9dIOBb9+IRIJMrzbc7UjSzk/FYb3mSohm/Gw8omsFDAwD5JXJzi2MUzeyz90ak5WFPrqrYn8OBagj+FDRLg1McPJFDuQq0YzAwCs9V8LgSjsbOAsxvQCdrPf5PcD+Rohlzi2M3w+NyCiuGtXzyMRYJRHNikZNHEEUzSRmFKK6x9RXaBTkAgMrqBl4sWpIDZFGl7kWZA0O6EOGMBZGDLftPKxvbcfZpegFFM+cuC/DR8RwbUZMzZ/R52dSxeS/LE+Fgo5WL+XbH6rpmxEsLypFj5KCvf8hsi72Nky+eMAAIjZBQNBMVm4548j+HAwB43gF/DIAtd0A+fetWtRoOBreutlOstqs+GNxa1ca6alk7bAxlYeUqIoffCRHGc4/tt47/yi+ZzYvmc9CrGeS+P4oTS7IpmnkXDgKmg94LZQtfPwDkICWrmDvleDaQoplx40R37wBFM+evhHFnoxOyCAd5xXKKZsSSbC7AwzeM+MGte6wFCMEIo3c57bP35i4BMFWjVXXC6AQLK67Xf2ItX3WgkrRPrOXF9eyhHjGCQs0TxX8cNYzlFlVevi76yw7WHymaycwrQ9B8DuQv2DMeI5lJnBBWXdf8jhzUvmzDrd18bscl52pHRomWyEG7qpuMAAB6cGtHF+ojTpRyZ+U1jYQDPB+8JC0qNp1w4Op96/NNR2RyJbcdcLj0xWY7rkzTHBDEZt+W39m84LXNvibOFFmyUEecKJ1SbvvBswiYz0FuUSVFM7xT2f6q5x05AABFbZObz23ilLxYpOmfE0xjk3Km4rtMrswprKBoJk1ayn0j1Adj0Z1INt52ds1evwCQnFlEODh00o9syutwZS7GQc/wm98fbTHZeobf8KQs5xHDPSYe8zl4oWyhaOa+OI0rSiZXLs4BAEyFDq+r4dxVN358Qu5k7niRrHqHDXvH4nWNflDf1MHFCERsyG5XdStqmyiaeRCXyZ0tq6gjfhCXnEtEEUz4w2TCwdnLAopm9KNjZHahDv8+ILhWzevVp7pNtjbNawIz2eFleAAwbpzYbn2OohnEDw2PUDTz/c0HZLlWp6do5pj7dTICAD7XhFwO6hrYwBL5eM6dttHK5eiZQO6qffbe862DAGT6UfzPU6cPOeDlBd8cOr9umwMAoD4nzgdxJWNyjH6AxUr4w2QCME5M7plO3vBOTkjNp2gmLPIpASzUWZADADDzG/nUU/upp477b+Y3spAsMv7nr496+IY9jMt8VlFbVlkXnZCFSaer9y2C2bT3lNlW++C7saQ+wDeMiEkdGNKpe/ovBUZgwkfu5LEx4xeb7ehdTiHCeKwPAACTS8zZWzu6LgVGoOPjYb91Lz5QEIPpprKxHYvHwmcKwsHfvzkhEqeO6A3NbZ3OnjcomiGSva6Go2v29A2qe/p9AoQbLJ2JH0xFub12F80tjqVLS0f0hvqmDpvj/0YAcjA2btx6wI2iGYcz18SS7JLnNTK5MiEln1yKxBSLcSAs+XWN7+SaK6//MP2/5grbF5Ys/cGIG39JKDzgcKmvf4hsXFCq+NtOJ5zF7E2r02NZgIMbrVxKntdw/QAAEtN+MdtqjwAUpdMb9n/HHnxse+0uBoU9Jn7w44MkMoWdoLDHuBD9oEhWvW6bA8FwD/6wVr/rn+fJ1Jd7XErLWX1IbtrSribpBpacj5+y1165oh636NUMunjdJBKwE5ecS4yAncU4YFPawtlqYK0/+7jMX2dXnzhRigVtQkp+ZXWDyYUvmzp0nNJUq9OnSUsjYlKfVdQaJybHjRMyuZJbdqKQuoY2UloDgGFsPF1aejcqKf6nPADo7h2QyZUkEKvUvY/ifxaIJHHJuY0ts2U9cqAZGB7RGzLzyoTRKbx6GwCGtfrU7BKePtx7WN2tSUz7JSo2HasEzEd5CmsGhqUF5cLolIycZ9xTSAyyBAcA0D8K0ga29fMrLSLko+wQDv5X2mt1+r/uPP71tzO53/LFLs3B8mV9XMh35GDcOLHDxj1QEIOfvAQiyfrd7OcKvGzeyhQrHMypD97KdvgJiIT7wy7f19T/N8XTb5eDtzL3QmB5TaNMrqya/j64EGbJ8RUOljTRewescPDeTbzkBiscLGmi9w5Y4eC9m3jJDf4D8CiVOR9LGnYAAAAASUVORK5CYII=;" vertex="1" parent="1">
          <mxGeometry x="689" y="1255" width="101" height="20.35" as="geometry" />
        </mxCell>
        <mxCell id="TvpjpGgyVsRweBhkjj-o-302" style="edgeStyle=orthogonalEdgeStyle;curved=1;rounded=0;orthogonalLoop=1;jettySize=auto;html=1;exitX=0.5;exitY=1;exitDx=0;exitDy=0;entryX=0.536;entryY=-0.039;entryDx=0;entryDy=0;entryPerimeter=0;" edge="1" parent="1" source="TvpjpGgyVsRweBhkjj-o-296" target="TvpjpGgyVsRweBhkjj-o-235">
          <mxGeometry relative="1" as="geometry">
            <Array as="points">
              <mxPoint x="815" y="1430" />
              <mxPoint x="629" y="1430" />
              <mxPoint x="629" y="1390" />
              <mxPoint x="464" y="1390" />
            </Array>
          </mxGeometry>
        </mxCell>
        <mxCell id="TvpjpGgyVsRweBhkjj-o-307" value="" style="ellipse;shape=cloud;whiteSpace=wrap;html=1;rounded=1;shadow=0;glass=0;strokeColor=default;strokeWidth=1;align=center;verticalAlign=middle;fontFamily=Helvetica;fontSize=12;fontColor=default;fillColor=default;" vertex="1" parent="1">
          <mxGeometry x="549" y="1519" width="170" height="60" as="geometry" />
        </mxCell>
        <mxCell id="TvpjpGgyVsRweBhkjj-o-308" value="&lt;span style=&quot;font-size: 10px;&quot;&gt;Note: Add Respective &lt;br&gt;Released&amp;nbsp;&lt;/span&gt;&lt;span style=&quot;font-size: 10px; background-color: initial;&quot;&gt;Features:&lt;/span&gt;" style="text;html=1;align=left;verticalAlign=middle;resizable=0;points=[];autosize=1;strokeColor=none;fillColor=none;fontFamily=Helvetica;fontSize=12;fontColor=default;" vertex="1" parent="1">
          <mxGeometry x="585.31" y="1531" width="120" height="40" as="geometry" />
        </mxCell>
      </root>
    </mxGraphModel>
  </diagram>
</mxfile>
